<?xml version="1.0" encoding="utf-8"?>
<!-- Generator: Adobe Illustrator 24.0.3, SVG Export Plug-In . SVG Version: 6.00 Build 0)  -->
<svg version="1.1" id="Layer_1" xmlns="http://www.w3.org/2000/svg" xmlns:xlink="http://www.w3.org/1999/xlink" x="0px" y="0px"
	 viewBox="0 0 438 396" style="enable-background:new 0 0 438 396;" xml:space="preserve">
<style type="text/css">
	.st0{fill-rule:evenodd;clip-rule:evenodd;fill:#063996;}
	.st1{fill:#063996;}
</style>
<title>Rectangle</title>
<desc>Created with Sketch.</desc>
<g id="Website">
	<g id="Students_home_with_covers" transform="translate(-41.000000, -4100.000000)">
		<g id="Rectangle" transform="translate(33.000000, 4099.000000)">
			<g id="Mask">
				<path id="Fill-1" class="st0" d="M250.4,173.7c-0.7-1.7-2-3-3.8-4.2c-1.8-1.1-3.6-1.7-5.4-1.6c-1.8,0.1-3,0.7-3.8,1.8
					c-0.8,1.2-0.8,2.6,0,4.2c0.7,1.6,2,3,3.8,4.2c1.8,1.1,3.6,1.7,5.4,1.6c1.8,0,3.1-0.7,3.8-1.9
					C251.2,176.8,251.2,175.4,250.4,173.7 M251.6,173.3L251.6,173.3c1,2.2,0.9,4-0.1,5.6c-1,1.6-2.6,2.5-5,2.5
					c-2.1,0.1-4.1-0.6-6.1-1.8c-2.1-1.3-3.5-2.9-4.4-4.8l0,0c-0.9-2.1-0.9-4,0.2-5.6c0.9-1.6,2.6-2.4,4.9-2.5
					c2.1-0.1,4.2,0.6,6.2,1.9C249.4,169.8,250.8,171.4,251.6,173.3 M229.6,164.8c-1.2-0.7-2-1.7-2.4-2.9c-0.4-1.2-0.3-2.3,0.3-3.2
					c0.6-1,1.5-1.5,2.8-1.6c1.3-0.2,2.5,0.1,3.7,0.9c1.2,0.7,2,1.7,2.4,2.9c0.4,1.2,0.4,2.3-0.2,3.2c-0.6,0.9-1.5,1.5-2.8,1.6
					C232,165.9,230.8,165.6,229.6,164.8 M232.3,154.5c-1.2-0.7-2-1.7-2.4-2.9c-0.4-1.2-0.3-2.3,0.3-3.2c0.6-1,1.5-1.5,2.8-1.6
					c1.3-0.2,2.5,0.1,3.7,0.9c1.2,0.7,2,1.7,2.4,2.9c0.4,1.2,0.4,2.3-0.2,3.2c-0.6,0.9-1.5,1.5-2.8,1.6
					C234.7,155.5,233.5,155.2,232.3,154.5 M245.5,146.1c1.3-0.2,2.5,0.1,3.7,0.9c1.2,0.7,2,1.7,2.4,2.9c0.4,1.2,0.4,2.3-0.2,3.2
					c-0.6,0.9-1.5,1.5-2.8,1.6c-1.2,0.2-2.4-0.1-3.6-0.9c-1.2-0.7-2-1.7-2.4-2.9c-0.4-1.2-0.3-2.3,0.3-3.2
					C243.4,146.8,244.3,146.2,245.5,146.1 M256.1,154.9c1.3-0.2,2.5,0.1,3.7,0.9c1.2,0.7,2,1.7,2.4,2.9c0.4,1.2,0.4,2.3-0.2,3.2
					c-0.6,0.9-1.5,1.5-2.8,1.6c-1.2,0.2-2.4-0.1-3.6-0.9c-1.2-0.7-2-1.7-2.4-2.9c-0.4-1.2-0.3-2.3,0.3-3.2
					C253.9,155.6,254.9,155,256.1,154.9 M247.1,143.3c-2.8-0.6-5.6-0.8-8.3-0.6c-4.3,0.3-7.7,1.4-10.5,3.4c-1.5,1.1-2.8,2.5-3.8,4.1
					c-1,1.6-1.7,3.4-2.1,5.2c-0.6,3.3-0.1,7,1.5,10.9c1.2,3,3.1,5.8,5.5,8.5c2.3,2.6,5.1,4.9,8.1,6.8l0.2,0.1
					c3.1,1.9,6.2,3.4,9.5,4.4c1.3,0.4,2.6,0.7,3.9,0.9c2,0.3,3.9,0.4,5.7,0.3c1.1-0.1,1.9-0.6,2.5-1.5c0.5-0.9,0.6-1.8,0.2-2.7
					c-0.2-0.4-0.5-0.9-1-1.4c-0.2-0.2-0.7-0.6-1.3-1.2c-0.6-0.4-1-0.8-1.2-1.2c0,0-0.1-0.1-0.1-0.1c-0.2-0.3-0.4-0.7-0.6-1.1
					c-0.4-1.1-0.4-1.9,0-2.6c0.5-0.7,1.3-1.1,2.4-1.2l4.8-0.3c3.7-0.2,6.3-1.6,7.9-4.2c1.6-2.6,1.7-5.6,0.3-9c-0.4-1-0.9-2-1.5-3
					c-0.3-0.4-0.5-0.8-0.8-1.2c-0.7-1-1.4-1.9-2.2-2.8c-2-2.1-4.3-4.1-6.9-5.7c-3.1-1.9-6.4-3.4-9.9-4.4
					C248.7,143.6,247.9,143.4,247.1,143.3 M238.3,141.1c1.8-0.1,3.6-0.1,5.4,0.1c2,0.2,4,0.6,6,1.2c3.7,1.1,7.3,2.6,10.5,4.7
					c2.8,1.8,5.3,3.8,7.4,6.1c2.2,2.4,3.8,4.9,4.9,7.5l0,0c1.6,4,1.5,7.4-0.5,10.5c-1.9,3-4.9,4.7-9.2,4.9l0,0l-4.9,0.3l0,0
					c-0.1,0-0.1,0-0.2,0c-0.5,0.1-0.9,0.3-1.2,0.6c-0.2,0.3-0.2,0.8,0,1.2c0,0.1,0,0.1,0.1,0.2c0,0,0,0,0,0c0.1,0.3,0.3,0.6,0.4,0.8
					c0.3,0.3,0.6,0.6,1.1,1c0,0,0,0,0,0c0.6,0.6,1.1,1,1.3,1.2c0,0,0,0,0.1,0.1c0.6,0.6,1,1.3,1.2,1.8c0,0,0,0,0,0
					c0.5,1.4,0.4,2.7-0.3,4l0,0c-0.8,1.3-2,2.1-3.6,2.2l0,0c-2.3,0.1-4.7,0-7.1-0.6c-1-0.2-2.1-0.5-3.2-0.8c-3.5-1-6.8-2.6-10.1-4.6
					l-0.2-0.2c-3.3-2.1-6.1-4.5-8.6-7.3c-2.6-2.9-4.6-5.9-5.9-9.1c-1.2-2.8-1.8-5.5-1.9-8c-0.2-3.5,0.7-6.8,2.6-9.7
					c1.9-3,4.4-5.2,7.7-6.6C232.6,141.8,235.3,141.2,238.3,141.1"/>
				<path id="Fill-1-Copy-3" class="st0" d="M408.4,267.7c-0.7-1.7-2-3-3.8-4.2c-1.8-1.1-3.6-1.7-5.4-1.6c-1.8,0.1-3,0.7-3.8,1.8
					c-0.8,1.2-0.8,2.6,0,4.2c0.7,1.6,2,3,3.8,4.2c1.8,1.1,3.6,1.7,5.4,1.6c1.8,0,3.1-0.7,3.8-1.9
					C409.2,270.8,409.2,269.4,408.4,267.7 M409.6,267.3L409.6,267.3c1,2.2,0.9,4-0.1,5.6c-1,1.6-2.6,2.5-5,2.5
					c-2.1,0.1-4.1-0.6-6.1-1.8c-2.1-1.3-3.5-2.9-4.4-4.8l0,0c-0.9-2.1-0.9-4,0.2-5.6c0.9-1.6,2.6-2.4,4.9-2.5
					c2.1-0.1,4.2,0.6,6.2,1.9C407.4,263.8,408.8,265.4,409.6,267.3 M387.6,258.8c-1.2-0.7-2-1.7-2.4-2.9c-0.4-1.2-0.3-2.3,0.3-3.2
					c0.6-1,1.5-1.5,2.8-1.6c1.3-0.2,2.5,0.1,3.7,0.9c1.2,0.7,2,1.7,2.4,2.9c0.4,1.2,0.4,2.3-0.2,3.2c-0.6,0.9-1.5,1.5-2.8,1.6
					C390,259.9,388.8,259.6,387.6,258.8 M390.3,248.5c-1.2-0.7-2-1.7-2.4-2.9c-0.4-1.2-0.3-2.3,0.3-3.2c0.6-1,1.5-1.5,2.8-1.6
					c1.3-0.2,2.5,0.1,3.7,0.9c1.2,0.7,2,1.7,2.4,2.9c0.4,1.2,0.4,2.3-0.2,3.2c-0.6,0.9-1.5,1.5-2.8,1.6
					C392.7,249.5,391.5,249.2,390.3,248.5 M403.5,240.1c1.3-0.2,2.5,0.1,3.7,0.9c1.2,0.7,2,1.7,2.4,2.9c0.4,1.2,0.4,2.3-0.2,3.2
					c-0.6,0.9-1.5,1.5-2.8,1.6c-1.2,0.2-2.4-0.1-3.6-0.9c-1.2-0.7-2-1.7-2.4-2.9c-0.4-1.2-0.3-2.3,0.3-3.2
					C401.4,240.8,402.3,240.2,403.5,240.1 M414.1,248.9c1.3-0.2,2.5,0.1,3.7,0.9c1.2,0.7,2,1.7,2.4,2.9c0.4,1.2,0.4,2.3-0.2,3.2
					c-0.6,0.9-1.5,1.5-2.8,1.6c-1.2,0.2-2.4-0.1-3.6-0.9c-1.2-0.7-2-1.7-2.4-2.9c-0.4-1.2-0.3-2.3,0.3-3.2
					C411.9,249.6,412.9,249,414.1,248.9 M405.1,237.3c-2.8-0.6-5.6-0.8-8.3-0.6c-4.3,0.3-7.7,1.4-10.5,3.4c-1.5,1.1-2.8,2.5-3.8,4.1
					c-1,1.6-1.7,3.4-2.1,5.2c-0.6,3.3-0.1,7,1.5,10.9c1.2,3,3.1,5.8,5.5,8.5c2.3,2.6,5.1,4.9,8.1,6.8l0.2,0.1
					c3.1,1.9,6.2,3.4,9.5,4.4c1.3,0.4,2.6,0.7,3.9,0.9c2,0.3,3.9,0.4,5.7,0.3c1.1-0.1,1.9-0.6,2.5-1.5c0.5-0.9,0.6-1.8,0.2-2.7
					c-0.2-0.4-0.5-0.9-1-1.4c-0.2-0.2-0.7-0.6-1.3-1.2c-0.6-0.4-1-0.8-1.2-1.2c0,0-0.1-0.1-0.1-0.1c-0.2-0.3-0.4-0.7-0.6-1.1
					c-0.4-1.1-0.4-1.9,0-2.6c0.5-0.7,1.3-1.1,2.4-1.2l4.8-0.3c3.7-0.2,6.3-1.6,7.9-4.2c1.6-2.6,1.7-5.6,0.3-9c-0.4-1-0.9-2-1.5-3
					c-0.3-0.4-0.5-0.8-0.8-1.2c-0.7-1-1.4-1.9-2.2-2.8c-2-2.1-4.3-4.1-6.9-5.7c-3.1-1.9-6.4-3.4-9.9-4.4
					C406.7,237.6,405.9,237.4,405.1,237.3 M396.3,235.1c1.8-0.1,3.6-0.1,5.4,0.1c2,0.2,4,0.6,6,1.2c3.7,1.1,7.3,2.6,10.5,4.7
					c2.8,1.8,5.3,3.8,7.4,6.1c2.2,2.4,3.8,4.9,4.9,7.5l0,0c1.6,4,1.5,7.4-0.5,10.5c-1.9,3-4.9,4.7-9.2,4.9l0,0l-4.9,0.3l0,0
					c-0.1,0-0.1,0-0.2,0c-0.5,0.1-0.9,0.3-1.2,0.6c-0.2,0.3-0.2,0.8,0,1.2c0,0.1,0,0.1,0.1,0.2c0,0,0,0,0,0c0.1,0.3,0.3,0.6,0.4,0.8
					c0.3,0.3,0.6,0.6,1.1,1c0,0,0,0,0,0c0.6,0.6,1.1,1,1.3,1.2c0,0,0,0,0.1,0.1c0.6,0.6,1,1.3,1.2,1.8c0,0,0,0,0,0
					c0.5,1.4,0.4,2.7-0.3,4l0,0c-0.8,1.3-2,2.1-3.6,2.2l0,0c-2.3,0.1-4.7,0-7.1-0.6c-1-0.2-2.1-0.5-3.2-0.8c-3.5-1-6.8-2.6-10.1-4.6
					l-0.2-0.2c-3.3-2.1-6.1-4.5-8.6-7.3c-2.6-2.9-4.6-5.9-5.9-9.1c-1.2-2.8-1.8-5.5-1.9-8c-0.2-3.5,0.7-6.8,2.6-9.7
					c1.9-3,4.4-5.2,7.7-6.6C390.6,235.8,393.3,235.2,396.3,235.1"/>
				<path id="Fill-1-Copy-2" class="st0" d="M49.4,277.7c-0.7-1.7-2-3-3.8-4.2c-1.8-1.1-3.6-1.7-5.4-1.6c-1.8,0.1-3,0.7-3.8,1.8
					c-0.8,1.2-0.8,2.6,0,4.2c0.7,1.6,2,3,3.8,4.2c1.8,1.1,3.6,1.7,5.4,1.6c1.8,0,3.1-0.7,3.8-1.9C50.2,280.8,50.2,279.4,49.4,277.7
					 M50.6,277.3L50.6,277.3c1,2.2,0.9,4-0.1,5.6c-1,1.6-2.6,2.5-5,2.5c-2.1,0.1-4.1-0.6-6.1-1.8c-2.1-1.3-3.5-2.9-4.4-4.8l0,0
					c-0.9-2.1-0.9-4,0.2-5.6c0.9-1.6,2.6-2.4,4.9-2.5c2.1-0.1,4.2,0.6,6.2,1.9C48.4,273.8,49.8,275.4,50.6,277.3 M28.6,268.8
					c-1.2-0.7-2-1.7-2.4-2.9c-0.4-1.2-0.3-2.3,0.3-3.2c0.6-1,1.5-1.5,2.8-1.6c1.3-0.2,2.5,0.1,3.7,0.9c1.2,0.7,2,1.7,2.4,2.9
					c0.4,1.2,0.4,2.3-0.2,3.2c-0.6,0.9-1.5,1.5-2.8,1.6C31,269.9,29.8,269.6,28.6,268.8 M31.3,258.5c-1.2-0.7-2-1.7-2.4-2.9
					c-0.4-1.2-0.3-2.3,0.3-3.2c0.6-1,1.5-1.5,2.8-1.6c1.3-0.2,2.5,0.1,3.7,0.9c1.2,0.7,2,1.7,2.4,2.9c0.4,1.2,0.4,2.3-0.2,3.2
					c-0.6,0.9-1.5,1.5-2.8,1.6C33.7,259.5,32.5,259.2,31.3,258.5 M44.5,250.1c1.3-0.2,2.5,0.1,3.7,0.9c1.2,0.7,2,1.7,2.4,2.9
					c0.4,1.2,0.4,2.3-0.2,3.2c-0.6,0.9-1.5,1.5-2.8,1.6c-1.2,0.2-2.4-0.1-3.6-0.9c-1.2-0.7-2-1.7-2.4-2.9c-0.4-1.2-0.3-2.3,0.3-3.2
					C42.4,250.8,43.3,250.2,44.5,250.1 M55.1,258.9c1.3-0.2,2.5,0.1,3.7,0.9c1.2,0.7,2,1.7,2.4,2.9c0.4,1.2,0.4,2.3-0.2,3.2
					c-0.6,0.9-1.5,1.5-2.8,1.6c-1.2,0.2-2.4-0.1-3.6-0.9c-1.2-0.7-2-1.7-2.4-2.9c-0.4-1.2-0.3-2.3,0.3-3.2
					C52.9,259.6,53.9,259,55.1,258.9 M46.1,247.3c-2.8-0.6-5.6-0.8-8.3-0.6c-4.3,0.3-7.7,1.4-10.5,3.4c-1.5,1.1-2.8,2.5-3.8,4.1
					c-1,1.6-1.7,3.4-2.1,5.2c-0.6,3.3-0.1,7,1.5,10.9c1.2,3,3.1,5.8,5.5,8.5c2.3,2.6,5.1,4.9,8.1,6.8l0.2,0.1
					c3.1,1.9,6.2,3.4,9.5,4.4c1.3,0.4,2.6,0.7,3.9,0.9c2,0.3,3.9,0.4,5.7,0.3c1.1-0.1,1.9-0.6,2.5-1.5c0.5-0.9,0.6-1.8,0.2-2.7
					c-0.2-0.4-0.5-0.9-1-1.4c-0.2-0.2-0.7-0.6-1.3-1.2c-0.6-0.4-1-0.8-1.2-1.2c0,0-0.1-0.1-0.1-0.1c-0.2-0.3-0.4-0.7-0.6-1.1
					c-0.4-1.1-0.4-1.9,0-2.6c0.5-0.7,1.3-1.1,2.4-1.2l4.8-0.3c3.7-0.2,6.3-1.6,7.9-4.2c1.6-2.6,1.7-5.6,0.3-9c-0.4-1-0.9-2-1.5-3
					c-0.3-0.4-0.5-0.8-0.8-1.2c-0.7-1-1.4-1.9-2.2-2.8c-2-2.1-4.3-4.1-6.9-5.7c-3.1-1.9-6.4-3.4-9.9-4.4
					C47.7,247.6,46.9,247.4,46.1,247.3 M37.3,245.1c1.8-0.1,3.6-0.1,5.4,0.1c2,0.2,4,0.6,6,1.2c3.7,1.1,7.3,2.6,10.5,4.7
					c2.8,1.8,5.3,3.8,7.4,6.1c2.2,2.4,3.8,4.9,4.9,7.5l0,0c1.6,4,1.5,7.4-0.5,10.5c-1.9,3-4.9,4.7-9.2,4.9l0,0l-4.9,0.3l0,0
					c-0.1,0-0.1,0-0.2,0c-0.5,0.1-0.9,0.3-1.2,0.6c-0.2,0.3-0.2,0.8,0,1.2c0,0.1,0,0.1,0.1,0.2c0,0,0,0,0,0c0.1,0.3,0.3,0.6,0.4,0.8
					c0.3,0.3,0.6,0.6,1.1,1c0,0,0,0,0,0c0.6,0.6,1.1,1,1.3,1.2c0,0,0,0,0.1,0.1c0.6,0.6,1,1.3,1.2,1.8c0,0,0,0,0,0
					c0.5,1.4,0.4,2.7-0.3,4l0,0c-0.8,1.3-2,2.1-3.6,2.2l0,0c-2.3,0.1-4.7,0-7.1-0.6c-1-0.2-2.1-0.5-3.2-0.8c-3.5-1-6.8-2.6-10.1-4.6
					l-0.2-0.2c-3.3-2.1-6.1-4.5-8.6-7.3c-2.6-2.9-4.6-5.9-5.9-9.1c-1.2-2.8-1.8-5.5-1.9-8c-0.2-3.5,0.7-6.8,2.6-9.7
					c1.9-3,4.4-5.2,7.7-6.6C31.6,245.8,34.3,245.2,37.3,245.1"/>
				<path id="Fill-5" class="st0" d="M162.5,295.6c1.1,0.4,2.1,0.4,3,0c1-0.5,1.7-1.4,2.3-2.7l2.8-6.5l-3.5-1.5L162.5,295.6z
					 M166.7,276.1l2.6,1.1l0.5-1.2l-2.6-1.1L166.7,276.1L166.7,276.1z M166.4,272.1c-0.1,0.4-0.1,0.7,0.1,1.1
					c0.1,0.2,0.3,0.5,0.6,0.6c0.1,0.1,0.3,0.2,0.4,0.2c0,0,0.1,0,0.1,0l2.6,1.1c0,0,0,0,0.1,0c0.2,0.1,0.4,0.1,0.5,0.2
					c0.3,0,0.5,0,0.8-0.1c0.4-0.1,0.7-0.4,0.8-0.7c0.2-0.4,0.2-0.7,0-1.1c-0.2-0.4-0.4-0.6-0.8-0.8l-3.4-1.5
					c-0.4-0.1-0.7-0.1-1.1,0.1C166.8,271.5,166.5,271.7,166.4,272.1L166.4,272.1z M165.7,275.7l0.4-1c0,0,0,0,0,0l-0.2-0.2
					c-0.2-0.2-0.3-0.4-0.4-0.6c0,0,0,0,0,0l-0.1-0.1c0,0-0.1,0-0.1,0c-0.4,0.1-0.7,0.2-1.1,0.1l-0.4,1L165.7,275.7L165.7,275.7z
					 M162.7,274.3l0.5-1.2l-2.6-1.1l-0.5,1.2L162.7,274.3L162.7,274.3z M154,269.2l-0.5,1.2l2.6,1.1l0.5-1.2L154,269.2L154,269.2z
					 M159.8,269.2c-0.1,0.4-0.1,0.7,0.1,1.1c0.1,0.2,0.3,0.4,0.5,0.6c0.1,0.1,0.3,0.2,0.5,0.3c0,0,0,0,0,0l2.6,1.1c0,0,0.1,0,0.1,0
					c0.1,0.1,0.3,0.1,0.5,0.1c0.3,0.1,0.6,0.1,0.9,0c0.4-0.1,0.7-0.4,0.8-0.7c0.2-0.4,0.2-0.7,0-1.1c-0.2-0.4-0.4-0.6-0.8-0.8
					l-3.4-1.5c-0.4-0.1-0.7-0.1-1.1,0.1C160.2,268.6,159.9,268.9,159.8,269.2L159.8,269.2z M157.5,271l-0.4,1l2,0.9l0.4-1l-0.2-0.2
					c-0.2-0.2-0.4-0.5-0.5-0.7c0,0,0,0,0-0.1l-0.1,0.1c0,0,0,0,0,0c-0.2,0.1-0.5,0.1-0.8,0.1C157.7,271,157.6,271,157.5,271
					C157.5,271,157.5,271,157.5,271L157.5,271z M153.2,266.4c-0.1,0.3-0.1,0.7,0.1,1.1c0.1,0.2,0.3,0.4,0.5,0.6
					c0.1,0.1,0.3,0.2,0.4,0.2c0,0,0.1,0,0.1,0.1l2.6,1.1c0.2,0.1,0.4,0.1,0.6,0.2c0.3,0,0.5,0,0.8-0.1c0.4-0.1,0.7-0.3,0.9-0.7
					c0.2-0.4,0.2-0.7,0-1.1c-0.2-0.4-0.4-0.6-0.8-0.8l-3.4-1.5c-0.4-0.1-0.7-0.1-1.1,0.1C153.6,265.8,153.3,266,153.2,266.4
					L153.2,266.4z M163.3,284l-4.9,11.3c-0.1,0.3-0.1,0.7,0,1.1c0.1,0.4,0.4,0.7,0.7,0.8c0.3,0.1,0.7,0.1,1.1,0
					c0.4-0.1,0.6-0.4,0.8-0.7l5.7-13.2c0.2-0.4,0.2-0.8,0-1.2c-0.2-0.4-0.5-0.7-0.9-0.8c-0.4-0.1-0.7-0.1-1,0.1
					c-0.3,0.2-0.6,0.4-0.7,0.8l-0.8,1.8C163.3,283.8,163.3,283.9,163.3,284L163.3,284z M157.9,293.6l4.4-10.2c0-0.1,0-0.1,0.1-0.2
					l0.1-0.3l-1.7-0.7c-0.1,0-0.2-0.1-0.3-0.1l-4.6,10.7L157.9,293.6L157.9,293.6z M154.6,279.5c-0.2-0.1-0.4-0.2-0.6-0.3l-4.6,10.7
					l2,0.8l4.7-10.7L154.6,279.5L154.6,279.5z M145.7,278.2c-1,0.6-1.8,1.4-2.3,2.5c-0.6,1.5-0.7,2.9-0.3,4.4
					c0.3,1.1,0.9,1.9,1.6,2.6l4.4-10.1c0,0,0,0,0-0.1c-1.1-0.2-2.1,0-3.2,0.5C145.9,278.1,145.8,278.1,145.7,278.2
					C145.7,278.2,145.7,278.2,145.7,278.2L145.7,278.2z M142.4,273.2l7.3,3.2l0.3-0.6c0.2-0.6,0.6-1.1,1.3-1.4
					c0.6-0.3,1.2-0.3,1.8-0.2c0,0,0.1,0,0.1,0c0.7,0.2,1.1,0.7,1.5,1.3c0,0,0,0,0,0c0.3,0.8,0.3,1.5,0,2.1l-0.2,0.4
					c0.3,0.1,0.6,0.2,0.9,0.4l1,0.5l0.2-0.5c0.2-0.6,0.7-1,1.2-1.3c0,0,0,0,0.1,0c0.6-0.2,1.2-0.3,1.8-0.1c0,0,0,0,0.1,0
					c0.6,0.2,1.1,0.7,1.5,1.3c0,0,0,0.1,0,0.1c0.3,0.7,0.3,1.4,0,2.1l-0.2,0.4c0.2,0.1,0.4,0.2,0.6,0.2l1.4,0.6l0.2-0.4
					c0.2-0.6,0.6-1.1,1.3-1.4c0.6-0.3,1.2-0.3,1.8-0.2c0,0,0.1,0,0.1,0c0.6,0.2,1.1,0.7,1.5,1.3c0,0,0,0.1,0,0.1
					c0.3,0.7,0.3,1.4,0,2.1l-0.2,0.5l8.9,3.8c0.2,0.1,0.3,0.2,0.5,0.3c1,0.9,2.2,3.2,3.5,6.8c0.7,1.9,1.6,4.7,2.7,8.4
					c0.2,0.6,0.4,1.2,0.5,1.8l12.7-29c-0.6,0.3-1.3,0.6-1.9,0.9c-3.5,1.7-6.1,2.9-8,3.7c-4.1,1.7-6.8,2.3-7.9,1.8l-9.5-4.1l0,0
					l-2.6-1.1l0,0l-4-1.7l0,0l-2.6-1.1l0,0l-4-1.7l0,0l-2.6-1.1l0,0l-12.5-5.4l-2.4,5.4c1,0.4,1.9,0.8,2.5,1.1
					C142,273,142.4,273.2,142.4,273.2L142.4,273.2z M135.8,263.9l-2.3,5.3c-0.4,1,0,1.8,1.3,2.3c1.2,0.5,2.1,0.4,2.6-0.5l2.4-5.5
					c0.4-1-0.1-1.7-1.4-2.3C137.1,262.7,136.3,262.9,135.8,263.9L135.8,263.9z M153.6,294.3c0.4-0.1,0.6-0.4,0.8-0.7l5.7-13.2
					c0.2-0.4,0.2-0.8,0-1.2c-0.2-0.4-0.5-0.7-0.9-0.8c-0.3-0.1-0.7-0.1-1,0.1c-0.3,0.2-0.6,0.4-0.7,0.8l-5.7,13.2
					c-0.1,0.3-0.1,0.7,0,1.1c0.1,0.4,0.4,0.7,0.7,0.8C152.8,294.4,153.2,294.4,153.6,294.3L153.6,294.3z M147.6,292.2
					c-0.7,0.3-1.4,0.3-2,0c-0.6-0.3-1.1-0.7-1.3-1.5c0,0,0,0,0,0c-0.2-0.6-0.2-1.1,0-1.7c0,0,0,0,0-0.1c0,0,0-0.1,0.1-0.1l0.1-0.3
					c-1-0.8-1.8-1.9-2.2-3.3c-0.5-1.7-0.4-3.5,0.3-5.2c0.6-1.3,1.5-2.3,2.7-3c0.1-0.1,0.3-0.1,0.4-0.2c0.4-0.2,0.9-0.4,1.3-0.5
					l-5.4-2.3c-0.1,0-0.2-0.1-0.3-0.2c-0.3,0.3-0.6,0.7-0.8,1.1c-0.6,0.9-1.1,1.8-1.6,2.8c-1.3,3.1-1.7,6-1,8.8
					c0.6,2.5,1.8,4.1,3.6,4.9l21,9.1c2,0.9,3.9,0.9,5.6,0.1c1.8-0.8,3.1-2.3,4.1-4.6l3.2-7.6l-3.9-1.7l-2.7,6.3
					c-0.7,1.6-1.7,2.7-2.9,3.3c-1.2,0.5-2.5,0.5-3.9,0l-0.1,0.3c0,0,0,0,0,0c-0.3,0.6-0.7,1-1.4,1.3l0,0c-0.7,0.3-1.4,0.3-2,0.1
					c-0.6-0.3-1.1-0.7-1.3-1.5c0,0,0,0,0,0c-0.2-0.6-0.2-1.2,0-1.8c0,0,0,0,0,0l0.1-0.3l-2-0.9l-0.1,0.3c0,0,0,0,0,0
					c-0.3,0.6-0.7,1-1.3,1.3l0,0c-0.7,0.3-1.4,0.3-2,0c-0.6-0.3-1-0.7-1.3-1.4c0,0,0,0,0,0c-0.2-0.6-0.2-1.2,0-1.8c0,0,0,0,0,0
					l0.1-0.2l-2-0.8l-0.1,0.2c0,0.1,0,0.1-0.1,0.1c0,0,0,0,0,0.1C148.5,291.6,148.1,292,147.6,292.2L147.6,292.2L147.6,292.2z
					 M147,291.4c0.3-0.1,0.6-0.3,0.7-0.6c0,0,0-0.1,0.1-0.2l5.7-13.2c0.2-0.4,0.2-0.8,0-1.2c-0.2-0.4-0.5-0.6-0.9-0.8
					c-0.4-0.1-0.7-0.1-1,0.1c-0.3,0.2-0.6,0.4-0.7,0.8l-0.8,1.8c0,0.1,0,0.1-0.1,0.2l-4.9,11.3c0,0.1,0,0.1-0.1,0.1
					c-0.1,0.3-0.1,0.6,0,0.9c0.2,0.4,0.4,0.7,0.8,0.9C146.3,291.6,146.6,291.6,147,291.4L147,291.4z M136.8,287
					c-0.7-3-0.4-6.2,1-9.5c0.5-1.1,1-2.1,1.7-3c0.3-0.4,0.6-0.8,0.9-1.2l-2.8-1.2c-0.2,0.2-0.4,0.4-0.7,0.5c-0.1,0-0.2,0.1-0.2,0.1
					c-0.7,0.2-1.5,0.1-2.6-0.4c-2.1-0.9-2.7-2.2-1.9-3.8l2.3-5.3c0.6-1.7,2-2.1,4-1.2c1,0.5,1.7,1,2,1.6c0,0.1,0.1,0.1,0.1,0.2
					c0.1,0.3,0.1,0.6,0.1,0.9l11.6,5.1l0.4-1c-0.3-0.2-0.5-0.5-0.6-0.9c0,0,0,0,0,0c-0.1-0.2-0.2-0.4-0.2-0.6l0-0.2
					c0-0.2,0-0.4,0-0.6c0-0.2,0.1-0.4,0.2-0.5c0.3-0.6,0.7-1.1,1.4-1.4c0,0,0,0,0,0c0.6-0.2,1.2-0.2,1.8,0l0,0c0,0,0,0,0.1,0
					c0,0,0,0,0.1,0l3.5,1.5c0,0,0.1,0,0.1,0.1c0.2,0.1,0.4,0.3,0.6,0.5l0.1,0.2c0.1,0.2,0.3,0.4,0.4,0.6l0,0
					c0.4-0.1,0.8-0.2,1.3-0.1l0.5,0.1c0,0,0,0,0.1,0l3.4,1.5c0,0,0,0,0.1,0c0,0,0,0,0.1,0c0.1,0,0.1,0.1,0.2,0.1l0.3,0.2
					c0.3,0.3,0.5,0.6,0.7,1l0,0c0.3-0.1,0.6-0.1,0.9-0.1l0.8,0.1c0,0,0.1,0,0.1,0c0,0,0,0,0.1,0c0,0,0.1,0,0.1,0l3.4,1.5
					c0,0,0,0,0,0c0,0,0,0,0,0c0.5,0.3,0.9,0.7,1.2,1.3c0,0,0,0,0,0c0.3,0.7,0.2,1.3,0,1.9c-0.3,0.7-0.8,1.1-1.5,1.3c0,0,0,0,0,0
					c-0.4,0.1-0.7,0.2-1.1,0.1l-0.4,1l8.5,3.7c1,0.3,3.4-0.3,7.1-1.9l0,0c2.1-0.8,5.3-2.3,9.5-4.4l0.2-0.1c0.2-0.1,0.4-0.1,0.7-0.1
					c0.2,0,0.4,0.1,0.6,0.3c0.2,0.2,0.3,0.3,0.3,0.6c0,0.2,0,0.5-0.1,0.7l-12.7,29c-0.1,0.2-0.2,0.4-0.4,0.5
					c-0.2,0.1-0.4,0.2-0.6,0.2c-0.2,0-0.4-0.1-0.6-0.2c-0.2-0.1-0.3-0.3-0.4-0.6c0,0,0,0,0,0c-1.3-4.5-2.4-7.9-3.2-10.1
					c-1-2.8-1.9-4.7-2.7-5.7l-3.2,7.5c-1.1,2.6-2.7,4.3-4.7,5.1l0,0c-2,0.9-4.1,0.9-6.5-0.1l-21-9.1
					C139,291.8,137.5,289.9,136.8,287L136.8,287L136.8,287z"/>
				<path id="Fill-5-Copy" class="st0" d="M116.6,82c1.1,0.1,2.1-0.2,2.9-0.8c0.8-0.7,1.3-1.8,1.5-3.2l1-7l-3.7-0.6L116.6,82z
					 M115.6,62.1l2.8,0.4l0.2-1.2l-2.8-0.4L115.6,62.1L115.6,62.1z M114.2,58.3c0,0.4,0.1,0.7,0.4,1c0.2,0.2,0.4,0.4,0.7,0.5
					c0.1,0.1,0.3,0.1,0.5,0.1c0,0,0.1,0,0.1,0l2.8,0.4c0,0,0,0,0.1,0c0.2,0,0.4,0.1,0.6,0c0.3,0,0.5-0.1,0.8-0.3
					c0.4-0.2,0.6-0.5,0.6-0.9c0.1-0.4,0-0.7-0.3-1.1c-0.2-0.3-0.6-0.5-0.9-0.6l-3.7-0.6c-0.4,0-0.7,0.1-1,0.3
					C114.5,57.6,114.3,57.9,114.2,58.3L114.2,58.3z M114.5,61.9l0.2-1c0,0,0,0-0.1,0l-0.2-0.1c-0.2-0.1-0.4-0.3-0.6-0.5c0,0,0,0,0,0
					l-0.1-0.1c0,0-0.1,0-0.1,0c-0.3,0.2-0.7,0.3-1.1,0.4l-0.2,1.1L114.5,61.9L114.5,61.9z M111.3,61.4l0.2-1.2l-2.8-0.4l-0.2,1.2
					L111.3,61.4L111.3,61.4z M101.6,58.7l-0.2,1.2l2.8,0.4l0.2-1.2L101.6,58.7L101.6,58.7z M107.1,57.2c0,0.4,0.1,0.7,0.4,1
					c0.2,0.2,0.4,0.3,0.7,0.4c0.2,0.1,0.4,0.1,0.5,0.1c0,0,0,0,0.1,0l2.8,0.4c0,0,0.1,0,0.1,0c0.2,0,0.3,0,0.5,0
					c0.3,0,0.6-0.1,0.8-0.3c0.4-0.2,0.6-0.5,0.6-0.9c0.1-0.4,0-0.7-0.3-1.1c-0.2-0.3-0.6-0.5-0.9-0.6l-3.7-0.5c-0.4,0-0.7,0.1-1,0.3
					C107.4,56.5,107.2,56.9,107.1,57.2L107.1,57.2z M105.4,59.5l-0.2,1l2.1,0.3l0.2-1.1l-0.2-0.1c-0.3-0.2-0.5-0.3-0.7-0.6
					c0,0,0,0-0.1-0.1l-0.1,0.1c0,0,0,0,0,0c-0.2,0.1-0.4,0.2-0.7,0.3C105.6,59.5,105.5,59.5,105.4,59.5
					C105.4,59.5,105.4,59.5,105.4,59.5L105.4,59.5z M100.1,56.2c-0.1,0.4,0.1,0.7,0.4,1c0.2,0.2,0.4,0.3,0.7,0.4
					c0.1,0.1,0.3,0.1,0.5,0.1c0,0,0.1,0,0.2,0l2.8,0.4c0.2,0,0.4,0.1,0.6,0c0.3,0,0.5-0.1,0.8-0.3c0.4-0.2,0.6-0.5,0.7-0.9
					c0.1-0.4,0-0.7-0.3-1.1c-0.3-0.3-0.6-0.5-1-0.6l-3.7-0.5c-0.4,0-0.7,0.1-1,0.3C100.3,55.5,100.1,55.8,100.1,56.2L100.1,56.2z
					 M114.3,70.6l-1.8,12.2c0,0.4,0,0.7,0.3,1c0.2,0.4,0.6,0.6,0.9,0.6c0.4,0.1,0.7-0.1,1.1-0.3c0.3-0.2,0.5-0.5,0.6-0.9l2.1-14.3
					c0.1-0.4-0.1-0.8-0.3-1.2c-0.3-0.3-0.6-0.5-1-0.5c-0.4,0-0.7,0.1-1,0.4c-0.3,0.2-0.5,0.6-0.5,0.9l-0.3,1.9
					C114.3,70.4,114.3,70.5,114.3,70.6L114.3,70.6z M111.6,81.3l1.6-11c0-0.1,0-0.1,0-0.2l0-0.3l-1.8-0.3c-0.1,0-0.2,0-0.3,0
					l-1.7,11.5L111.6,81.3L111.6,81.3z M104.8,68.5c-0.2,0-0.4,0-0.7-0.1l-1.7,11.5l2.1,0.3l1.7-11.6L104.8,68.5L104.8,68.5z
					 M95.9,69.5c-0.9,0.8-1.4,1.8-1.6,3c-0.2,1.6,0.1,3,0.9,4.4c0.6,1,1.4,1.7,2.2,2.1l1.6-10.9c0,0,0,0,0-0.1
					c-1.1,0.1-2.1,0.5-2.9,1.3C96.1,69.4,96,69.4,95.9,69.5C95.9,69.5,95.9,69.5,95.9,69.5L95.9,69.5z M91.4,65.6l7.9,1.2l0.1-0.6
					c0-0.7,0.3-1.2,0.9-1.7c0.5-0.4,1.1-0.6,1.7-0.6c0,0,0.1,0,0.1,0c0.7,0.1,1.3,0.4,1.8,0.9c0,0,0,0,0,0c0.5,0.6,0.7,1.3,0.5,2
					l-0.1,0.5c0.3,0,0.7,0.1,1,0.1l1.1,0.2l0.1-0.5c0.1-0.6,0.4-1.1,0.9-1.6c0,0,0,0,0.1,0c0.5-0.4,1.1-0.6,1.7-0.6c0,0,0.1,0,0.1,0
					c0.7,0.1,1.3,0.3,1.8,0.9c0,0,0,0.1,0.1,0.1c0.5,0.6,0.6,1.3,0.5,2l-0.1,0.5c0.2,0,0.4,0.1,0.6,0.1l1.5,0.2l0.1-0.4
					c0-0.7,0.3-1.2,0.9-1.7c0.5-0.4,1.1-0.6,1.7-0.6c0,0,0.1,0,0.1,0c0.7,0.1,1.2,0.3,1.7,0.9c0,0,0,0,0,0.1c0.5,0.6,0.7,1.3,0.6,2
					l-0.1,0.5l9.5,1.4c0.2,0,0.3,0.1,0.5,0.2c1.2,0.6,3,2.5,5.2,5.6c1.2,1.7,2.8,4.1,4.8,7.4c0.3,0.5,0.7,1.1,1,1.6l4.8-31.3
					c-0.5,0.5-1.1,0.9-1.6,1.4c-2.9,2.5-5.2,4.4-6.7,5.6c-3.6,2.7-6,4-7.2,3.8l-10.2-1.5l0,0l-2.8-0.4l0,0l-4.3-0.6l0,0l-2.8-0.4
					l0,0l-4.3-0.6l0,0l-2.8-0.4l0,0l-13.4-2l-0.9,5.8c1.1,0.2,2,0.3,2.7,0.4C90.9,65.5,91.4,65.6,91.4,65.6L91.4,65.6z M82.6,58.3
					L81.8,64c-0.2,1.1,0.5,1.7,1.9,1.9c1.3,0.2,2.1-0.2,2.4-1.1l0.9-5.9c0.1-1-0.5-1.6-1.9-1.8C83.6,56.8,82.8,57.2,82.6,58.3
					L82.6,58.3z M107.7,83c0.3-0.2,0.5-0.5,0.6-0.9l2.1-14.3c0.1-0.4,0-0.8-0.3-1.1c-0.3-0.3-0.6-0.5-1.1-0.5c-0.4,0-0.7,0.1-1,0.3
					c-0.3,0.3-0.5,0.6-0.5,0.9l-2.1,14.3c0,0.4,0.1,0.7,0.3,1c0.2,0.4,0.5,0.6,0.9,0.6C107,83.4,107.3,83.3,107.7,83L107.7,83z
					 M101.3,82.6c-0.6,0.5-1.2,0.7-1.9,0.6c-0.7-0.1-1.2-0.4-1.7-1.1c0,0,0,0,0,0c-0.4-0.5-0.5-1-0.5-1.6c0,0,0,0,0-0.1
					c0,0,0-0.1,0-0.2l0.1-0.4c-1.2-0.5-2.2-1.4-3-2.6c-1-1.6-1.3-3.2-1-5.1c0.2-1.4,0.8-2.7,1.9-3.6c0.1-0.1,0.2-0.2,0.3-0.3
					c0.4-0.3,0.8-0.6,1.2-0.8l-5.8-0.9c-0.1,0-0.2-0.1-0.3-0.1c-0.2,0.4-0.4,0.8-0.5,1.3c-0.4,1-0.6,2-0.8,3.1
					c-0.5,3.3-0.1,6.2,1.3,8.7c1.3,2.2,2.8,3.5,4.8,3.8l22.7,3.4c2.2,0.3,4-0.1,5.4-1.3c1.5-1.2,2.4-3,2.8-5.5l1.1-8.2l-4.2-0.6
					l-1,6.8c-0.3,1.7-0.9,3-1.9,3.9c-1,0.8-2.3,1.1-3.7,1l0,0.3c0,0,0,0,0,0c-0.1,0.6-0.4,1.2-1,1.6l0,0c-0.6,0.5-1.2,0.7-1.9,0.6
					c-0.7-0.1-1.2-0.4-1.7-1.1c0,0,0,0,0,0c-0.4-0.5-0.5-1.1-0.5-1.7c0,0,0,0,0,0l0-0.3l-2.1-0.3l0,0.3c0,0,0,0,0,0
					c-0.1,0.6-0.4,1.1-0.9,1.5l0,0c-0.6,0.5-1.2,0.7-1.9,0.6c-0.7-0.1-1.2-0.4-1.6-1.1c0,0,0,0,0,0c-0.4-0.5-0.6-1.1-0.5-1.7
					c0,0,0,0,0,0l0-0.3l-2.1-0.3l0,0.2c0,0.1,0,0.1,0,0.2c0,0,0,0,0,0.1C102.1,81.8,101.8,82.3,101.3,82.6L101.3,82.6L101.3,82.6z
					 M100.6,82c0.3-0.2,0.4-0.5,0.5-0.8c0,0,0-0.1,0-0.2l2.1-14.2c0.1-0.4,0-0.8-0.3-1.1c-0.3-0.3-0.6-0.5-1-0.5
					c-0.4,0-0.7,0.1-1,0.4c-0.3,0.3-0.5,0.6-0.5,0.9l-0.3,1.9c0,0.1,0,0.1,0,0.2l-1.8,12.2c0,0.1,0,0.1,0,0.2c0,0.3,0.1,0.6,0.3,0.9
					c0.3,0.4,0.6,0.6,1,0.6C99.9,82.3,100.3,82.2,100.6,82L100.6,82z M89.6,80.4c-1.5-2.7-2-5.8-1.4-9.4c0.2-1.2,0.4-2.3,0.8-3.3
					c0.2-0.5,0.4-0.9,0.6-1.4l-3-0.4c-0.1,0.3-0.3,0.5-0.5,0.7c-0.1,0.1-0.1,0.1-0.2,0.2c-0.6,0.4-1.5,0.5-2.6,0.3
					c-2.2-0.3-3.2-1.4-2.8-3.2l0.8-5.7c0.2-1.8,1.4-2.5,3.6-2.2c1.1,0.2,1.9,0.5,2.4,1.1c0.1,0.1,0.1,0.1,0.2,0.2
					c0.2,0.2,0.3,0.5,0.3,0.8l12.5,1.9l0.2-1c-0.3-0.2-0.6-0.4-0.9-0.7c0,0,0,0,0,0c-0.1-0.2-0.3-0.4-0.4-0.5l-0.1-0.2
					c-0.1-0.2-0.1-0.4-0.1-0.6c0-0.2,0-0.4,0-0.6c0.1-0.7,0.4-1.2,1-1.7c0,0,0,0,0,0c0.5-0.4,1.1-0.5,1.7-0.5l0,0c0,0,0,0,0.1,0
					c0,0,0,0,0.1,0l3.8,0.6c0,0,0.1,0,0.1,0c0.2,0.1,0.5,0.2,0.7,0.3l0.2,0.1c0.2,0.1,0.3,0.3,0.5,0.5l0,0c0.4-0.3,0.8-0.4,1.2-0.4
					l0.5,0c0,0,0,0,0.1,0l3.7,0.5c0,0,0,0,0.1,0c0,0,0,0,0.1,0c0.1,0,0.1,0,0.2,0.1l0.4,0.1c0.3,0.2,0.6,0.4,0.9,0.8l0,0
					c0.3-0.2,0.5-0.3,0.8-0.4l0.8-0.1c0,0,0.1,0,0.1,0c0,0,0,0,0.1,0c0,0,0.1,0,0.1,0l3.7,0.5c0,0,0,0,0,0c0,0,0,0,0,0
					c0.6,0.1,1.1,0.4,1.5,0.9c0,0,0,0,0,0c0.4,0.6,0.6,1.2,0.5,1.9c-0.1,0.7-0.5,1.3-1.1,1.7c0,0,0,0,0,0c-0.3,0.2-0.7,0.3-1,0.4
					l-0.2,1l9.1,1.4c1,0,3.2-1.2,6.4-3.6l0,0c1.8-1.3,4.5-3.6,8.1-6.7l0.2-0.2c0.2-0.1,0.4-0.2,0.6-0.3c0.2,0,0.4,0,0.6,0.1
					c0.2,0.1,0.3,0.3,0.4,0.5c0.1,0.2,0.1,0.4,0.1,0.7l-4.8,31.3c0,0.2-0.1,0.4-0.3,0.6c-0.2,0.2-0.3,0.3-0.6,0.3
					c-0.2,0.1-0.4,0-0.7-0.1c-0.2-0.1-0.4-0.2-0.5-0.4c0,0,0,0,0,0c-2.4-4-4.3-7-5.7-8.9c-1.7-2.4-3.1-4-4.1-4.8l-1.1,8
					c-0.4,2.8-1.5,4.8-3.2,6.1l0,0c-1.7,1.4-3.8,1.9-6.3,1.5l-22.7-3.4C92.9,84.4,91,83,89.6,80.4L89.6,80.4L89.6,80.4z"/>
				<path id="Fill-5-Copy-2" class="st0" d="M306.3,137.8c0.7,0.9,1.6,1.4,2.6,1.5c1.1,0,2.2-0.4,3.4-1.2l5.7-4.2l-2.3-3
					L306.3,137.8z M319.7,122.9l1.7,2.3l1-0.7l-1.7-2.3L319.7,122.9L319.7,122.9z M321.4,119.3c-0.3,0.2-0.4,0.6-0.5,1
					c0,0.3,0.1,0.6,0.2,0.8c0.1,0.1,0.1,0.3,0.2,0.4c0,0,0,0,0.1,0.1l1.7,2.3c0,0,0,0,0,0c0.1,0.2,0.2,0.3,0.4,0.4
					c0.2,0.2,0.5,0.3,0.7,0.3c0.4,0.1,0.8,0,1.1-0.2c0.3-0.2,0.5-0.5,0.6-1c0.1-0.4,0-0.8-0.3-1.1l-2.2-3c-0.2-0.3-0.6-0.5-1-0.5
					C322,119,321.7,119.1,321.4,119.3L321.4,119.3z M319,122.1l0.8-0.6c0,0,0,0,0-0.1l-0.1-0.2c-0.1-0.3-0.1-0.5-0.1-0.8
					c0,0,0,0,0,0l0-0.2c0,0-0.1,0-0.1,0c-0.4-0.1-0.7-0.2-1-0.5l-0.9,0.6L319,122.1L319,122.1z M317.1,119.4l1-0.7l-1.7-2.3l-1,0.7
					L317.1,119.4L317.1,119.4z M312.1,110.6l-1,0.7l1.7,2.3l1-0.7L312.1,110.6L312.1,110.6z M317.1,113.5c-0.3,0.2-0.4,0.6-0.4,1
					c0,0.3,0,0.5,0.1,0.8c0.1,0.2,0.2,0.3,0.3,0.5c0,0,0,0,0,0l1.7,2.3c0,0,0,0.1,0.1,0.1c0.1,0.1,0.2,0.2,0.3,0.3
					c0.2,0.2,0.5,0.3,0.8,0.4c0.4,0.1,0.8,0,1.1-0.2c0.3-0.2,0.5-0.6,0.5-1c0.1-0.4,0-0.8-0.3-1.1l-2.2-3c-0.2-0.3-0.6-0.4-1-0.5
					C317.8,113.2,317.4,113.3,317.1,113.5L317.1,113.5z M314.3,113.9l-0.8,0.6l1.3,1.7l0.9-0.6l-0.1-0.2c-0.1-0.3-0.1-0.6-0.1-0.9
					c0,0,0-0.1,0-0.1l-0.2,0c0,0,0,0,0,0c-0.2-0.1-0.5-0.2-0.7-0.3C314.5,114,314.4,114,314.3,113.9
					C314.3,113.9,314.3,113.9,314.3,113.9L314.3,113.9z M312.9,107.8c-0.3,0.2-0.5,0.6-0.5,1c0,0.3,0,0.5,0.1,0.8
					c0.1,0.1,0.1,0.3,0.2,0.4c0,0,0.1,0.1,0.1,0.1l1.7,2.3c0.1,0.2,0.2,0.3,0.4,0.4c0.2,0.2,0.5,0.3,0.7,0.4
					c0.4,0.1,0.8,0.1,1.1-0.2c0.3-0.2,0.5-0.5,0.6-1c0-0.4-0.1-0.8-0.3-1.1l-2.2-3c-0.3-0.3-0.6-0.5-1-0.5
					C313.5,107.4,313.1,107.5,312.9,107.8L312.9,107.8z M312.8,128l-9.9,7.3c-0.3,0.2-0.5,0.5-0.5,0.9c-0.1,0.4,0,0.8,0.2,1.1
					c0.2,0.3,0.5,0.5,1,0.5c0.4,0.1,0.7,0,1-0.2l11.6-8.6c0.3-0.2,0.5-0.6,0.6-1.1c0-0.4-0.1-0.8-0.4-1.1c-0.3-0.3-0.6-0.4-0.9-0.4
					c-0.4,0-0.7,0.1-1,0.3l-1.5,1.1C312.9,128,312.8,128,312.8,128L312.8,128z M303.3,133.7l9-6.6c0,0,0.1-0.1,0.1-0.1l0.2-0.2
					l-1.1-1.5c-0.1-0.1-0.1-0.2-0.2-0.3L302,132L303.3,133.7L303.3,133.7z M307.5,119.8c-0.1-0.2-0.3-0.3-0.4-0.5l-9.4,6.9l1.3,1.7
					l9.4-7L307.5,119.8L307.5,119.8z M300.5,114.3c-1.2,0-2.3,0.3-3.2,1c-1.3,1-2.1,2.2-2.5,3.7c-0.3,1.1-0.2,2.1,0.1,3.1l8.8-6.6
					c0,0,0,0,0.1,0c-0.9-0.7-1.9-1.1-3-1.2C300.7,114.3,300.6,114.3,300.5,114.3C300.5,114.3,300.5,114.3,300.5,114.3L300.5,114.3z
					 M300.1,108.3l4.8,6.4l0.5-0.4c0.5-0.4,1.1-0.6,1.8-0.6c0.6,0.1,1.2,0.3,1.6,0.8c0,0,0,0,0.1,0.1c0.5,0.5,0.7,1.2,0.6,1.9
					c0,0,0,0,0,0.1c-0.1,0.8-0.4,1.4-1.1,1.8l-0.4,0.3c0.2,0.3,0.4,0.5,0.6,0.8l0.7,0.9l0.4-0.3c0.5-0.4,1.1-0.5,1.7-0.5
					c0,0,0,0,0.1,0c0.6,0.1,1.2,0.3,1.6,0.8c0,0,0,0,0.1,0.1c0.4,0.5,0.6,1.1,0.6,1.9c0,0,0,0.1,0,0.1c-0.1,0.8-0.5,1.4-1.1,1.8
					l-0.4,0.3c0.1,0.2,0.3,0.4,0.4,0.5l0.9,1.2l0.4-0.3c0.5-0.4,1.1-0.6,1.8-0.6c0.6,0.1,1.2,0.3,1.6,0.8c0,0,0,0,0.1,0.1
					c0.4,0.5,0.6,1.1,0.6,1.9c0,0,0,0,0,0.1c-0.1,0.8-0.4,1.4-1,1.8l-0.4,0.3l5.7,7.8c0.1,0.1,0.2,0.3,0.2,0.5
					c0.4,1.3,0.3,3.9-0.3,7.6c-0.3,2-0.9,4.9-1.8,8.6c-0.1,0.6-0.3,1.2-0.4,1.9l25.5-18.7c-0.7,0-1.4-0.1-2.1-0.1
					c-3.9-0.3-6.8-0.5-8.7-0.8c-4.5-0.6-7.1-1.4-7.8-2.4l-6.1-8.3l0,0l-1.7-2.3l0,0l-2.6-3.5l0,0l-1.7-2.3l0,0l-2.6-3.5l0,0
					l-1.7-2.3l0,0l-8.1-10.9l-4.7,3.5c0.7,0.9,1.2,1.6,1.6,2.2C299.8,107.9,300.1,108.3,300.1,108.3L300.1,108.3z M299.1,97
					l-4.6,3.4c-0.9,0.6-0.9,1.5,0,2.7c0.8,1.1,1.6,1.4,2.5,0.9l4.8-3.6c0.8-0.6,0.8-1.5,0-2.7C300.8,96.6,299.9,96.3,299.1,97
					L299.1,97z M299.3,132.1c0.4,0,0.7,0,1-0.2l11.6-8.6c0.3-0.2,0.5-0.6,0.6-1c0-0.4-0.1-0.8-0.4-1.1c-0.2-0.3-0.6-0.4-0.9-0.5
					c-0.4,0-0.7,0.1-1,0.3l-11.6,8.6c-0.3,0.2-0.5,0.5-0.5,0.9c-0.1,0.4,0,0.8,0.2,1.1C298.5,131.9,298.8,132.1,299.3,132.1
					L299.3,132.1z M295,127.3c-0.8-0.1-1.3-0.4-1.7-0.9c-0.4-0.5-0.6-1.2-0.4-1.9c0,0,0,0,0,0c0.1-0.6,0.4-1.1,0.8-1.5
					c0,0,0,0,0.1,0c0,0,0.1-0.1,0.1-0.1l0.3-0.2c-0.5-1.2-0.6-2.5-0.3-4c0.4-1.8,1.4-3.2,2.9-4.3c1.2-0.9,2.5-1.3,3.9-1.3
					c0.1,0,0.3,0,0.4,0c0.5,0,0.9,0.1,1.4,0.3l-3.5-4.7c-0.1-0.1-0.1-0.2-0.2-0.3c-0.4,0.2-0.9,0.3-1.3,0.5c-0.9,0.4-1.9,1-2.7,1.6
					c-2.7,2-4.4,4.4-5.2,7.1c-0.7,2.5-0.5,4.5,0.7,6.1l13.7,18.4c1.3,1.8,2.9,2.7,4.8,2.9c1.9,0.2,3.9-0.4,5.8-1.9l6.6-5l-2.5-3.4
					l-5.5,4.1c-1.4,1-2.8,1.5-4.1,1.4c-1.3-0.1-2.4-0.8-3.3-1.9l-0.2,0.2c0,0,0,0,0,0c-0.5,0.4-1.1,0.5-1.8,0.4l0,0
					c-0.8-0.1-1.3-0.4-1.7-0.9c-0.4-0.5-0.6-1.2-0.4-1.9c0,0,0,0,0,0c0.1-0.7,0.4-1.2,0.9-1.6c0,0,0,0,0,0l0.2-0.2l-1.3-1.7
					l-0.2,0.2c0,0,0,0,0,0c-0.5,0.4-1.1,0.5-1.8,0.4l0,0c-0.8-0.1-1.4-0.4-1.8-1c-0.4-0.5-0.5-1.2-0.4-1.9c0,0,0,0,0-0.1
					c0.1-0.7,0.4-1.2,0.9-1.6c0,0,0,0,0,0l0.2-0.2l-1.3-1.7l-0.2,0.1c0,0-0.1,0.1-0.1,0.1c0,0,0,0-0.1,0
					C296.2,127.3,295.6,127.4,295,127.3L295,127.3L295,127.3z M295,126.4c0.3,0.1,0.6,0,0.9-0.2c0,0,0.1-0.1,0.1-0.1l11.6-8.6
					c0.3-0.2,0.5-0.6,0.6-1c0-0.4-0.1-0.8-0.4-1.1c-0.3-0.3-0.6-0.4-0.9-0.4c-0.4,0-0.7,0.1-1,0.3l-1.5,1.1c0,0-0.1,0.1-0.1,0.1
					l-9.9,7.3c0,0-0.1,0.1-0.1,0.1c-0.2,0.2-0.4,0.5-0.4,0.8c-0.1,0.4,0,0.8,0.2,1.1C294.2,126.2,294.6,126.3,295,126.4L295,126.4z
					 M288.3,117.5c0.8-3,2.7-5.5,5.6-7.7c0.9-0.7,1.9-1.3,2.9-1.8c0.5-0.2,0.9-0.4,1.4-0.6l-1.8-2.4c-0.3,0.1-0.6,0.1-0.9,0.1
					c-0.1,0-0.2,0-0.3,0c-0.7-0.2-1.4-0.7-2.1-1.6c-1.3-1.8-1.3-3.2,0.3-4.2l4.6-3.4c1.4-1.1,2.8-0.8,4.1,1c0.7,0.9,1,1.7,0.9,2.4
					c0,0.1,0,0.2,0,0.2c-0.1,0.3-0.2,0.6-0.4,0.8l7.6,10.2l0.8-0.6c-0.1-0.3-0.1-0.7-0.1-1.1c0,0,0,0,0,0c0-0.2,0.1-0.4,0.1-0.6
					l0.1-0.2c0.1-0.2,0.2-0.4,0.3-0.5c0.1-0.1,0.2-0.3,0.4-0.4c0.5-0.4,1.2-0.6,1.9-0.5c0,0,0,0,0,0c0.6,0.1,1.2,0.4,1.5,0.9l0,0
					c0,0,0,0,0,0c0,0,0,0,0,0l2.3,3.1c0,0,0.1,0.1,0.1,0.1c0.1,0.2,0.2,0.5,0.3,0.7l0,0.2c0,0.2,0,0.5,0,0.7l0,0
					c0.4,0.1,0.8,0.3,1.2,0.5l0.4,0.4c0,0,0,0,0,0.1l2.2,3c0,0,0,0,0,0.1c0,0,0,0,0,0.1c0,0.1,0.1,0.1,0.1,0.2l0.2,0.3
					c0.1,0.4,0.2,0.8,0.1,1.2l0,0c0.3,0.1,0.6,0.2,0.8,0.3l0.6,0.5c0,0,0,0.1,0.1,0.1c0,0,0,0,0,0c0,0,0,0.1,0.1,0.1l2.2,3
					c0,0,0,0,0,0c0,0,0,0,0,0c0.3,0.5,0.5,1.1,0.4,1.7c0,0,0,0,0,0c-0.1,0.7-0.4,1.3-1,1.7c-0.6,0.4-1.2,0.6-2,0.4c0,0,0,0,0,0
					c-0.4-0.1-0.7-0.2-1-0.4l-0.8,0.6l5.5,7.4c0.7,0.8,3.1,1.4,7.1,1.9l0,0c2.2,0.3,5.7,0.6,10.5,0.9l0.2,0c0.2,0,0.4,0.1,0.6,0.2
					c0.2,0.1,0.3,0.3,0.4,0.5c0.1,0.2,0,0.4,0,0.6c-0.1,0.2-0.2,0.4-0.4,0.5l-25.5,18.7c-0.2,0.1-0.4,0.2-0.6,0.2
					c-0.2,0-0.4,0-0.6-0.2c-0.2-0.1-0.3-0.3-0.4-0.5c-0.1-0.2-0.1-0.4,0-0.7c0,0,0,0,0-0.1c1.1-4.6,1.9-8,2.3-10.3
					c0.5-2.9,0.7-5,0.5-6.3l-6.5,4.9c-2.2,1.7-4.4,2.4-6.6,2.1l0,0c-2.2-0.2-4-1.3-5.5-3.4l-13.7-18.4
					C287.8,122.7,287.5,120.3,288.3,117.5L288.3,117.5L288.3,117.5z"/>
				<path id="Fill-13" class="st0" d="M127.6,133.7c0.2,0.3,0.4,0.6,0.5,0.9l29.9-10.6l-0.3-0.9L127.6,133.7z M127.4,137.9
					c0-0.3-0.1-0.7-0.2-1l-0.9,0.3c0.1,0.3,0.1,0.7,0.1,1L127.4,137.9L127.4,137.9z M126.8,135.5l-1,0.3c0.1,0.2,0.2,0.5,0.3,0.8
					c0,0.1,0.1,0.2,0.1,0.3l0.9-0.3c0-0.1-0.1-0.2-0.1-0.3C127,136,126.9,135.7,126.8,135.5L126.8,135.5z M114,141.6l-8.5,3l0.4,1
					l8.6-3.1C114.3,142.3,114.1,142,114,141.6L114,141.6z M114.9,139.2c0-0.4-0.1-0.7,0-1.1l-1,0.3c0,0.4,0,0.7,0.1,1.1L114.9,139.2
					L114.9,139.2z M115,139.7l-0.9,0.3c0.1,0.3,0.1,0.6,0.2,0.8c0,0.1,0.1,0.1,0.1,0.2l0.9-0.3c0-0.1-0.1-0.1-0.1-0.2
					C115.1,140.2,115,140,115,139.7L115,139.7z M116,142c-0.2-0.3-0.4-0.6-0.5-0.9l-0.9,0.3c0.1,0.3,0.3,0.6,0.5,0.9L116,142
					L116,142z M115.3,142.7c0.6,0.8,1.4,1.4,2.4,1.9c1.7,0.8,3.4,0.9,5.2,0.3c1.7-0.6,3-1.8,3.8-3.5c0.5-1,0.7-2,0.7-3l-1,0.4
					c0,0.8-0.2,1.5-0.6,2.3c-0.7,1.5-1.8,2.5-3.3,3c-1.5,0.5-3,0.4-4.5-0.3c-0.7-0.4-1.4-0.8-1.9-1.4L115.3,142.7L115.3,142.7z
					 M105.4,144.3l8.4-3c0-0.1-0.1-0.1-0.1-0.2c-0.1-0.3-0.2-0.5-0.2-0.8l-8.5,3L105.4,144.3L105.4,144.3z M104.9,142.8l8.5-3
					c-0.1-0.3-0.1-0.7-0.1-1l-8.8,3.1L104.9,142.8L104.9,142.8z M125,134.6c0.2,0.3,0.4,0.5,0.6,0.8l0.9-0.3
					c-0.2-0.3-0.4-0.6-0.6-0.9L125,134.6L125,134.6z M125.6,133.9c-0.6-0.6-1.2-1.1-2-1.5c-1.7-0.8-3.5-0.9-5.2-0.3l0,0
					c-1.8,0.6-3.1,1.8-3.8,3.5c-0.4,0.8-0.6,1.6-0.7,2.5l1-0.4c0.1-0.6,0.3-1.1,0.5-1.6c0.7-1.5,1.8-2.5,3.3-3
					c1.5-0.5,2.9-0.4,4.4,0.3c0.5,0.3,1,0.6,1.4,0.9L125.6,133.9L125.6,133.9z M126.3,131.5l9.2-3.3c-1.4-2.1-3.1-3.6-5.1-4.7
					c-2.4-1.3-4.6-1.5-6.7-0.7c-1,0.3-1.9,0.9-2.7,1.7c-1.5,1.5-3.3,2.5-5.3,3c-2.1,0.5-4.1,0.4-6-0.3c-2.2-0.8-4.3-1.3-6.5-1.4
					c-2.1-0.1-4.1,0.1-5.7,0.7c-3.6,1.3-6.1,4.2-7.4,8.6c-0.9,3.2-1.1,6.4-0.5,9.8c0.3,1.4,0.6,2.8,1.2,4.3c0.3,0.8,0.6,1.5,0.9,2.2
					c1.8,3.9,4.3,6.9,7.5,9.2c3.8,2.6,7.6,3.3,11.1,2c1.6-0.6,3.3-1.7,4.9-3.1c1.6-1.5,3-3.2,4.2-5.2c1-1.8,2.5-3.1,4.5-4
					c1.9-0.9,3.9-1.2,6-1c1.1,0.1,2.2,0,3.1-0.4c2.2-0.8,3.7-2.4,4.8-4.8c0.9-2.1,1.2-4.4,0.9-6.9l-9.1,3.2c-0.3,0.1-0.5,0.1-0.8,0
					c-0.2-0.1-0.5-0.2-0.6-0.5c-0.1-0.1-0.1-0.2-0.2-0.3c-0.1,0.7-0.3,1.4-0.7,2l0,0c-0.9,1.8-2.3,3.1-4.2,3.8l0,0
					c-1.9,0.6-3.8,0.5-5.6-0.3l0,0c-1.1-0.6-2-1.3-2.7-2.2L106,146l1.6,4.7c0.1,0.4,0.1,0.8-0.1,1.2c-0.1,0.3-0.4,0.6-0.9,0.8
					c-0.4,0.1-0.8,0.1-1.1-0.1c-0.4-0.2-0.6-0.4-0.8-0.8l-4.7-13.4c-0.1-0.4-0.1-0.8,0.1-1.2c0.2-0.4,0.5-0.6,0.9-0.8
					c0.4-0.2,0.7-0.1,1.1,0.1c0.4,0.2,0.6,0.4,0.8,0.8l1.5,4.2l8.9-3.2c0-1,0.3-1.9,0.8-2.9c0.9-1.8,2.2-3.1,4.2-3.8
					c1.9-0.7,3.8-0.5,5.6,0.4c0.6,0.3,1.2,0.6,1.7,1.1c0-0.1-0.1-0.2-0.1-0.3c0-0.3,0-0.5,0.2-0.8
					C125.8,131.7,126,131.6,126.3,131.5L126.3,131.5z M159.2,127.2l-30.1,10.7c0,0.4,0,0.8,0,1.2l9.4-3.4l0,0l21.1-7.5L159.2,127.2
					L159.2,127.2z M158.7,125.8l-29.9,10.6c0.1,0.3,0.2,0.6,0.2,1l30-10.6L158.7,125.8L158.7,125.8z M158.2,124.4l-29.9,10.6
					c0.2,0.3,0.3,0.7,0.4,1l29.8-10.6L158.2,124.4L158.2,124.4z M159.5,119.9l-0.8,1l2.7,7.3l1,0.2c0.3,0.1,0.8,0.1,1.5-0.1l0,0.1
					l3-1l0,0l1.2-0.5l0,0l1.8-0.6l0,0l1-0.4l0,0l0.4-0.2c0.4-0.1,0.6-0.3,0.8-0.7c0.2-0.3,0.2-0.7,0-1l-2.5-6.9
					c-0.1-0.3-0.3-0.6-0.7-0.8c-0.3-0.1-0.7-0.2-1-0.1l-7.3,2.6C160.3,119.3,159.9,119.5,159.5,119.9L159.5,119.9z M98.5,161.6
					c-1.6-1.1-3-2.3-4.2-3.7c1.7,2.9,3.8,5.3,6.4,7.1c2,1.4,4,2.2,5.9,2.5c0.5,0.1,0.9,0.1,1.4,0.1c0.5,0,0.9,0,1.4-0.1
					c0.8-0.1,1.6-0.3,2.4-0.5c1.6-0.6,3.3-1.7,4.9-3.1c1.6-1.5,3-3.2,4.1-5.2c0.5-0.8,1.1-1.5,1.7-2.2c0.8-0.8,1.7-1.4,2.8-1.9
					c1.6-0.8,3.4-1.1,5.3-1c0.2,0,0.5,0,0.7,0c0.2,0,0.5,0,0.7,0.1c0.5,0,1-0.1,1.5-0.2c0.3-0.1,0.6-0.1,0.9-0.2
					c2.1-0.8,3.7-2.4,4.8-4.8c1-2.4,1.3-5.1,0.8-8.1l0,0l0,0l-0.2,0c0-0.2,0-0.4,0-0.7c-0.1,1.7-0.4,3.3-1.1,4.8
					c-1.2,2.8-3,4.6-5.5,5.5c-1.1,0.4-2.3,0.5-3.6,0.4c-1.9-0.2-3.7,0.1-5.4,0.9c-1.7,0.8-3,2-3.9,3.6c-1.2,2.1-2.7,4-4.4,5.5
					c-1.7,1.6-3.5,2.7-5.3,3.4l0,0l0,0C106.8,165.2,102.7,164.5,98.5,161.6L98.5,161.6L98.5,161.6z M126.8,132.6
					c0.1,0.1,0.2,0.2,0.3,0.3c0.1,0.1,0.2,0.3,0.3,0.4l30.2-10.7l-0.4-1l-30.5,10.8C126.7,132.4,126.8,132.5,126.8,132.6
					L126.8,132.6z M123.3,121.6c2.4-0.9,5-0.7,7.7,0.8c2.2,1.2,4.1,3,5.7,5.4l20.9-7.4l1-1.2c0-0.1,0.1-0.1,0.1-0.1
					c0.5-0.5,0.9-0.8,1.3-1l0,0l-0.2-0.5l-0.6-0.3l-0.1-0.1l-0.4-0.9c0-0.1,0-0.2,0.2-0.3l1.6-0.6c0.1,0,0.2,0,0.3,0.1l0.3,0.9
					c0,0,0,0.1,0,0.1l-0.2,0.6l0.1,0.5l1.9-0.7l-0.2-0.5l-0.6-0.3L162,116l-0.3-0.9c-0.1-0.1,0-0.2,0.1-0.3l1.6-0.6c0,0,0.1,0,0.1,0
					c0.1,0,0.1,0.1,0.1,0.1l0.4,0.9l0,0.2l-0.3,0.6l0.2,0.5l1.8-0.6l-0.2-0.5l-0.6-0.3l-0.1-0.1l-0.3-0.9c0-0.1,0-0.2,0.1-0.3
					l1.6-0.6c0.1,0,0.2,0,0.3,0.1l0.3,0.9l0,0.2l-0.3,0.6l0.2,0.5l0.7-0.3c0,0,0.1,0,0.1,0c0.6-0.2,1.2-0.2,1.8,0.1c0,0,0,0,0.1,0
					c0.6,0.3,1,0.8,1.3,1.4l2.5,6.9l0,0c0.3,0.7,0.2,1.4-0.1,2c-0.3,0.7-0.8,1.1-1.5,1.3l-0.1,0c0,0-0.1,0-0.1,0l0.2,0.7l0.6,0.3
					l0.1,0.1l0.3,0.9c0,0.1,0,0.2-0.1,0.3l-1.6,0.6c-0.1,0-0.2,0-0.3-0.1l-0.3-0.9l0-0.1l0.3-0.6l-0.2-0.7l-0.1,0.1
					c-0.1,0-0.3,0.1-0.4,0.1l-1.3,0.5c0,0,0,0-0.1,0l0.1,0.7l0.6,0.3l0.1,0.1l0.3,0.9c0.1,0.1,0,0.2-0.1,0.3l-1.6,0.6
					c-0.1,0.1-0.2,0-0.3-0.1l-0.3-0.9l0-0.2l0.3-0.6l-0.3-0.7l-0.2,0.1c-0.1,0-0.2,0.1-0.3,0.1l-1.4,0.5l0.1,0.7l0.6,0.3l0.1,0.1
					l0.3,0.9c0,0.1,0,0.2-0.1,0.3l-1.6,0.6c-0.1,0.1-0.2,0-0.3-0.1l-0.3-0.9l0-0.2l0.3-0.6l-0.2-0.7l-0.2,0.1
					c-0.2,0.1-0.4,0.1-0.5,0.1c-0.7,0.1-1.2,0.1-1.6,0l0.1,0l-1.3-0.3c-0.1,0-0.2,0-0.3,0l-20.1,7.2c0.5,1.2,0.7,2.2,0.8,3
					c0.1,0.1,0.2,0.3,0.2,0.5c0,0.1,0,0.2,0,0.3c0.4,3.1,0.1,5.9-0.9,8.4c-1.2,2.8-3,4.6-5.5,5.5l0,0c-0.4,0.1-0.7,0.2-1.1,0.3l0,0
					c-0.6,0.1-1.2,0.2-1.8,0.2c0,0-0.1,0-0.1,0c-0.2,0-0.5,0-0.7,0l0,0c-0.2,0-0.4,0-0.6-0.1c0,0,0,0-0.1,0
					c-1.7-0.1-3.3,0.2-4.7,0.9l0,0c-0.9,0.4-1.7,1-2.4,1.6l0,0c-0.6,0.5-1.1,1.2-1.5,1.9c-1.2,2.1-2.7,4-4.4,5.5
					c-1.7,1.6-3.5,2.7-5.3,3.4c0,0,0,0,0,0c-0.9,0.3-1.7,0.5-2.6,0.6c-0.5,0.1-1,0.1-1.5,0.1l0,0c-0.5,0-1.1,0-1.6-0.1
					c-2.1-0.3-4.3-1.2-6.4-2.7c-4.1-2.8-7-6.7-8.9-12c-0.2-0.7-0.5-1.4-0.7-2.1c-0.3-0.7-0.6-1.5-0.9-2.2
					c-1.9-5.2-2.1-10.2-0.7-14.9l0,0c1.5-4.9,4.2-8,8.1-9.4l0,0c1.8-0.6,3.9-0.9,6.2-0.7l0,0c2.3,0.1,4.5,0.6,6.8,1.5l0,0
					c1.7,0.6,3.5,0.7,5.3,0.3c1.8-0.5,3.4-1.4,4.7-2.7l0,0C121.1,122.7,122.2,122,123.3,121.6L123.3,121.6L123.3,121.6z"/>
				<path id="Fill-13-Copy-2" class="st0" d="M195.6,345.7c0.2,0.3,0.4,0.6,0.5,0.9l29.9-10.6l-0.3-0.9L195.6,345.7z M195.4,349.9
					c0-0.3-0.1-0.7-0.2-1l-0.9,0.3c0.1,0.3,0.1,0.7,0.1,1L195.4,349.9L195.4,349.9z M194.8,347.5l-1,0.3c0.1,0.2,0.2,0.5,0.3,0.8
					c0,0.1,0.1,0.2,0.1,0.3l0.9-0.3c0-0.1-0.1-0.2-0.1-0.3C195,348,194.9,347.7,194.8,347.5L194.8,347.5z M182,353.6l-8.5,3l0.4,1
					l8.6-3.1C182.3,354.3,182.1,354,182,353.6L182,353.6z M182.9,351.2c0-0.4-0.1-0.7,0-1.1l-1,0.3c0,0.4,0,0.7,0.1,1.1L182.9,351.2
					L182.9,351.2z M183,351.7l-0.9,0.3c0.1,0.3,0.1,0.6,0.2,0.8c0,0.1,0.1,0.1,0.1,0.2l0.9-0.3c0-0.1-0.1-0.1-0.1-0.2
					C183.1,352.2,183,352,183,351.7L183,351.7z M184,354c-0.2-0.3-0.4-0.6-0.5-0.9l-0.9,0.3c0.1,0.3,0.3,0.6,0.5,0.9L184,354
					L184,354z M183.3,354.7c0.6,0.8,1.4,1.4,2.4,1.9c1.7,0.8,3.4,0.9,5.2,0.3c1.7-0.6,3-1.8,3.8-3.5c0.5-1,0.7-2,0.7-3l-1,0.4
					c0,0.8-0.2,1.5-0.6,2.3c-0.7,1.5-1.8,2.5-3.3,3c-1.5,0.5-3,0.4-4.5-0.3c-0.7-0.4-1.4-0.8-1.9-1.4L183.3,354.7L183.3,354.7z
					 M173.4,356.3l8.4-3c0-0.1-0.1-0.1-0.1-0.2c-0.1-0.3-0.2-0.5-0.2-0.8l-8.5,3L173.4,356.3L173.4,356.3z M172.9,354.8l8.5-3
					c-0.1-0.3-0.1-0.7-0.1-1l-8.8,3.1L172.9,354.8L172.9,354.8z M193,346.6c0.2,0.3,0.4,0.5,0.6,0.8l0.9-0.3
					c-0.2-0.3-0.4-0.6-0.6-0.9L193,346.6L193,346.6z M193.6,345.9c-0.6-0.6-1.2-1.1-2-1.5c-1.7-0.8-3.5-0.9-5.2-0.3l0,0
					c-1.8,0.6-3.1,1.8-3.8,3.5c-0.4,0.8-0.6,1.6-0.7,2.5l1-0.4c0.1-0.6,0.3-1.1,0.5-1.6c0.7-1.5,1.8-2.5,3.3-3
					c1.5-0.5,2.9-0.4,4.4,0.3c0.5,0.3,1,0.6,1.4,0.9L193.6,345.9L193.6,345.9z M194.3,343.5l9.2-3.3c-1.4-2.1-3.1-3.6-5.1-4.7
					c-2.4-1.3-4.6-1.5-6.7-0.7c-1,0.3-1.9,0.9-2.7,1.7c-1.5,1.5-3.3,2.5-5.3,3c-2.1,0.5-4.1,0.4-6-0.3c-2.2-0.8-4.3-1.3-6.5-1.4
					c-2.1-0.1-4.1,0.1-5.7,0.7c-3.6,1.3-6.1,4.2-7.4,8.6c-0.9,3.2-1.1,6.4-0.5,9.8c0.3,1.4,0.6,2.8,1.2,4.3c0.3,0.8,0.6,1.5,0.9,2.2
					c1.8,3.9,4.3,6.9,7.5,9.2c3.8,2.6,7.6,3.3,11.1,2c1.6-0.6,3.3-1.7,4.9-3.1c1.6-1.5,3-3.2,4.2-5.2c1-1.8,2.5-3.1,4.5-4
					c1.9-0.9,3.9-1.2,6-1c1.1,0.1,2.2,0,3.1-0.4c2.2-0.8,3.7-2.4,4.8-4.8c0.9-2.1,1.2-4.4,0.9-6.9l-9.1,3.2c-0.3,0.1-0.5,0.1-0.8,0
					c-0.2-0.1-0.5-0.2-0.6-0.5c-0.1-0.1-0.1-0.2-0.2-0.3c-0.1,0.7-0.3,1.4-0.7,2l0,0c-0.9,1.8-2.3,3.1-4.2,3.8l0,0
					c-1.9,0.6-3.8,0.5-5.6-0.3l0,0c-1.1-0.6-2-1.3-2.7-2.2L174,358l1.6,4.7c0.1,0.4,0.1,0.8-0.1,1.2c-0.1,0.3-0.4,0.6-0.9,0.8
					c-0.4,0.1-0.8,0.1-1.1-0.1c-0.4-0.2-0.6-0.4-0.8-0.8l-4.7-13.4c-0.1-0.4-0.1-0.8,0.1-1.2c0.2-0.4,0.5-0.6,0.9-0.8
					c0.4-0.2,0.7-0.1,1.1,0.1c0.4,0.2,0.6,0.4,0.8,0.8l1.5,4.2l8.9-3.2c0-1,0.3-1.9,0.8-2.9c0.9-1.8,2.2-3.1,4.2-3.8
					c1.9-0.7,3.8-0.5,5.6,0.4c0.6,0.3,1.2,0.6,1.7,1.1c0-0.1-0.1-0.2-0.1-0.3c0-0.3,0-0.5,0.2-0.8
					C193.8,343.7,194,343.6,194.3,343.5L194.3,343.5z M227.2,339.2l-30.1,10.7c0,0.4,0,0.8,0,1.2l9.4-3.4l0,0l21.1-7.5L227.2,339.2
					L227.2,339.2z M226.7,337.8l-29.9,10.6c0.1,0.3,0.2,0.6,0.2,1l30-10.6L226.7,337.8L226.7,337.8z M226.2,336.4l-29.9,10.6
					c0.2,0.3,0.3,0.7,0.4,1l29.8-10.6L226.2,336.4L226.2,336.4z M227.5,331.9l-0.8,1l2.7,7.3l1,0.2c0.3,0.1,0.8,0.1,1.5-0.1l0,0.1
					l3-1l0,0l1.2-0.5l0,0l1.8-0.6l0,0l1-0.4l0,0l0.4-0.2c0.4-0.1,0.6-0.3,0.8-0.7c0.2-0.3,0.2-0.7,0-1l-2.5-6.9
					c-0.1-0.3-0.3-0.6-0.7-0.8c-0.3-0.1-0.7-0.2-1-0.1l-7.3,2.6C228.3,331.3,227.9,331.5,227.5,331.9L227.5,331.9z M166.5,373.6
					c-1.6-1.1-3-2.3-4.2-3.7c1.7,2.9,3.8,5.3,6.4,7.1c2,1.4,4,2.2,5.9,2.5c0.5,0.1,0.9,0.1,1.4,0.1c0.5,0,0.9,0,1.4-0.1
					c0.8-0.1,1.6-0.3,2.4-0.5c1.6-0.6,3.3-1.7,4.9-3.1c1.6-1.5,3-3.2,4.1-5.2c0.5-0.8,1.1-1.5,1.7-2.2c0.8-0.8,1.7-1.4,2.8-1.9
					c1.6-0.8,3.4-1.1,5.3-1c0.2,0,0.5,0,0.7,0c0.2,0,0.5,0,0.7,0.1c0.5,0,1-0.1,1.5-0.2c0.3-0.1,0.6-0.1,0.9-0.2
					c2.1-0.8,3.7-2.4,4.8-4.8c1-2.4,1.3-5.1,0.8-8.1l0,0l0,0l-0.2,0c0-0.2,0-0.4,0-0.7c-0.1,1.7-0.4,3.3-1.1,4.8
					c-1.2,2.8-3,4.6-5.5,5.5c-1.1,0.4-2.3,0.5-3.6,0.4c-1.9-0.2-3.7,0.1-5.4,0.9c-1.7,0.8-3,2-3.9,3.6c-1.2,2.1-2.7,4-4.4,5.5
					c-1.7,1.6-3.5,2.7-5.3,3.4l0,0l0,0C174.8,377.2,170.7,376.5,166.5,373.6L166.5,373.6L166.5,373.6z M194.8,344.6
					c0.1,0.1,0.2,0.2,0.3,0.3c0.1,0.1,0.2,0.3,0.3,0.4l30.2-10.7l-0.4-1l-30.5,10.8C194.7,344.4,194.8,344.5,194.8,344.6
					L194.8,344.6z M191.3,333.6c2.4-0.9,5-0.7,7.7,0.8c2.2,1.2,4.1,3,5.7,5.4l20.9-7.4l1-1.2c0-0.1,0.1-0.1,0.1-0.1
					c0.5-0.5,0.9-0.8,1.3-1l0,0l-0.2-0.5l-0.6-0.3l-0.1-0.1l-0.4-0.9c0-0.1,0-0.2,0.2-0.3l1.6-0.6c0.1,0,0.2,0,0.3,0.1l0.3,0.9
					c0,0,0,0.1,0,0.1l-0.2,0.6l0.1,0.5l1.9-0.7l-0.2-0.5l-0.6-0.3L230,328l-0.3-0.9c-0.1-0.1,0-0.2,0.1-0.3l1.6-0.6c0,0,0.1,0,0.1,0
					c0.1,0,0.1,0.1,0.1,0.1l0.4,0.9l0,0.2l-0.3,0.6l0.2,0.5l1.8-0.6l-0.2-0.5l-0.6-0.3l-0.1-0.1l-0.3-0.9c0-0.1,0-0.2,0.1-0.3
					l1.6-0.6c0.1,0,0.2,0,0.3,0.1l0.3,0.9l0,0.2l-0.3,0.6l0.2,0.5l0.7-0.3c0,0,0.1,0,0.1,0c0.6-0.2,1.2-0.2,1.8,0.1c0,0,0,0,0.1,0
					c0.6,0.3,1,0.8,1.3,1.4l2.5,6.9l0,0c0.3,0.7,0.2,1.4-0.1,2c-0.3,0.7-0.8,1.1-1.5,1.3l-0.1,0c0,0-0.1,0-0.1,0l0.2,0.7l0.6,0.3
					l0.1,0.1l0.3,0.9c0,0.1,0,0.2-0.1,0.3l-1.6,0.6c-0.1,0-0.2,0-0.3-0.1l-0.3-0.9l0-0.1l0.3-0.6l-0.2-0.7l-0.1,0.1
					c-0.1,0-0.3,0.1-0.4,0.1l-1.3,0.5c0,0,0,0-0.1,0l0.1,0.7l0.6,0.3l0.1,0.1l0.3,0.9c0.1,0.1,0,0.2-0.1,0.3l-1.6,0.6
					c-0.1,0.1-0.2,0-0.3-0.1l-0.3-0.9l0-0.2l0.3-0.6l-0.3-0.7l-0.2,0.1c-0.1,0-0.2,0.1-0.3,0.1l-1.4,0.5l0.1,0.7l0.6,0.3l0.1,0.1
					l0.3,0.9c0,0.1,0,0.2-0.1,0.3l-1.6,0.6c-0.1,0.1-0.2,0-0.3-0.1l-0.3-0.9l0-0.2l0.3-0.6l-0.2-0.7l-0.2,0.1
					c-0.2,0.1-0.4,0.1-0.5,0.1c-0.7,0.1-1.2,0.1-1.6,0l0.1,0l-1.3-0.3c-0.1,0-0.2,0-0.3,0l-20.1,7.2c0.5,1.2,0.7,2.2,0.8,3
					c0.1,0.1,0.2,0.3,0.2,0.5c0,0.1,0,0.2,0,0.3c0.4,3.1,0.1,5.9-0.9,8.4c-1.2,2.8-3,4.6-5.5,5.5l0,0c-0.4,0.1-0.7,0.2-1.1,0.3l0,0
					c-0.6,0.1-1.2,0.2-1.8,0.2c0,0-0.1,0-0.1,0c-0.2,0-0.5,0-0.7,0l0,0c-0.2,0-0.4,0-0.6-0.1c0,0,0,0-0.1,0
					c-1.7-0.1-3.3,0.2-4.7,0.9l0,0c-0.9,0.4-1.7,1-2.4,1.6l0,0c-0.6,0.5-1.1,1.2-1.5,1.9c-1.2,2.1-2.7,4-4.4,5.5
					c-1.7,1.6-3.5,2.7-5.3,3.4c0,0,0,0,0,0c-0.9,0.3-1.7,0.5-2.6,0.6c-0.5,0.1-1,0.1-1.5,0.1l0,0c-0.5,0-1.1,0-1.6-0.1
					c-2.1-0.3-4.3-1.2-6.4-2.7c-4.1-2.8-7-6.7-8.9-12c-0.2-0.7-0.5-1.4-0.7-2.1c-0.3-0.7-0.6-1.5-0.9-2.2
					c-1.9-5.2-2.1-10.2-0.7-14.9l0,0c1.5-4.9,4.2-8,8.1-9.4l0,0c1.8-0.6,3.9-0.9,6.2-0.7l0,0c2.3,0.1,4.5,0.6,6.8,1.5l0,0
					c1.7,0.6,3.5,0.7,5.3,0.3c1.8-0.5,3.4-1.4,4.7-2.7l0,0C189.1,334.7,190.2,334,191.3,333.6L191.3,333.6L191.3,333.6z"/>
				<path id="Fill-13-Copy" class="st0" d="M399.7,171.7c-0.1,0.3-0.3,0.6-0.5,0.9l24.1,20.6l0.6-0.8L399.7,171.7z M395.9,173.7
					c0.3-0.2,0.5-0.4,0.8-0.7l-0.8-0.6c-0.3,0.2-0.5,0.5-0.8,0.6L395.9,173.7L395.9,173.7z M397.7,171.9l-0.8-0.7
					c-0.2,0.2-0.3,0.4-0.5,0.7c-0.1,0.1-0.1,0.1-0.2,0.2l0.8,0.6c0.1-0.1,0.1-0.1,0.2-0.2C397.4,172.3,397.5,172.1,397.7,171.9
					L397.7,171.9z M386,163.9l-6.8-5.8l-0.7,0.8l7,5.9C385.6,164.4,385.8,164.2,386,163.9L386,163.9z M388.5,163.5
					c0.3-0.2,0.6-0.4,0.9-0.6l-0.8-0.7c-0.3,0.2-0.6,0.4-0.9,0.6L388.5,163.5L388.5,163.5z M388.2,163.7l-0.7-0.6
					c-0.2,0.2-0.4,0.4-0.6,0.6c-0.1,0.1-0.1,0.1-0.1,0.2l0.7,0.6c0-0.1,0.1-0.1,0.1-0.2C387.7,164.1,387.9,163.9,388.2,163.7
					L388.2,163.7z M386.7,165.8c0.1-0.3,0.3-0.6,0.5-0.9l-0.7-0.6c-0.2,0.3-0.4,0.6-0.5,0.9L386.7,165.8L386.7,165.8z M385.7,165.6
					c-0.4,0.9-0.5,2-0.5,3.1c0.2,1.9,0.9,3.4,2.4,4.7c1.4,1.2,3.1,1.7,4.9,1.6c1.1-0.1,2.1-0.4,3-0.9l-0.8-0.7
					c-0.7,0.4-1.4,0.6-2.2,0.6c-1.6,0.1-3-0.3-4.2-1.4c-1.2-1.1-1.9-2.4-2-4c-0.1-0.8,0-1.6,0.3-2.3L385.7,165.6L385.7,165.6z
					 M379.4,157.7l6.8,5.8c0-0.1,0.1-0.1,0.1-0.2c0.2-0.2,0.4-0.4,0.6-0.6l-6.9-5.8L379.4,157.7L379.4,157.7z M380.4,156.6l6.9,5.9
					c0.3-0.2,0.5-0.4,0.8-0.6l-7.1-6L380.4,156.6L380.4,156.6z M397.5,169.9c-0.1,0.3-0.2,0.7-0.4,1l0.8,0.6
					c0.2-0.3,0.3-0.6,0.5-0.9L397.5,169.9L397.5,169.9z M398.5,170.1c0.2-0.8,0.3-1.6,0.3-2.5c-0.2-1.9-1-3.4-2.3-4.6l0,0
					c-1.4-1.2-3.1-1.8-4.9-1.6c-0.9,0.1-1.7,0.3-2.5,0.6l0.8,0.7c0.5-0.2,1.1-0.3,1.7-0.4c1.6-0.2,3,0.3,4.2,1.4c1.2,1,1.8,2.3,2,4
					c0,0.6,0,1.2-0.1,1.7L398.5,170.1L398.5,170.1z M400.9,169.5l7.4,6.3c1.1-2.2,1.6-4.5,1.5-6.7c-0.1-2.7-1-4.7-2.7-6.1
					c-0.8-0.7-1.7-1.2-2.8-1.5c-2.1-0.6-3.9-1.6-5.3-3.1c-1.5-1.5-2.4-3.3-2.7-5.4c-0.4-2.3-1.1-4.4-2-6.3c-1-1.9-2.1-3.5-3.5-4.6
					c-2.9-2.5-6.6-3.2-11.2-2.1c-3.2,0.8-6.1,2.3-8.7,4.5c-1.1,0.9-2.1,2-3.1,3.2c-0.5,0.6-1,1.3-1.5,1.9c-2.5,3.5-3.9,7.2-4.2,11.1
					c-0.3,4.6,1,8.2,3.8,10.7c1.4,1.1,3.1,2,5.2,2.6c2.1,0.7,4.3,1,6.6,1c2.1,0,4,0.6,5.7,1.8c1.7,1.2,3,2.8,3.9,4.7
					c0.5,1,1.1,1.9,1.9,2.5c1.8,1.5,3.9,2.1,6.5,1.7c2.2-0.3,4.4-1.2,6.4-2.6l-7.4-6.3c-0.2-0.2-0.4-0.4-0.4-0.7
					c0-0.3,0-0.5,0.1-0.8c0.1-0.1,0.1-0.2,0.2-0.3c-0.7,0.2-1.4,0.4-2.1,0.4l0,0c-2,0.1-3.8-0.4-5.3-1.7l0,0c-1.5-1.3-2.4-3-2.5-5
					l0,0c-0.1-1.3,0.1-2.4,0.6-3.5l-7-6l-3.2,3.8c-0.3,0.3-0.7,0.5-1.1,0.6c-0.4,0-0.7-0.1-1.1-0.4c-0.3-0.3-0.5-0.6-0.5-1
					c0-0.4,0.1-0.8,0.3-1.1l9.3-10.8c0.3-0.3,0.7-0.5,1-0.5c0.4,0,0.8,0.1,1.1,0.4c0.3,0.2,0.5,0.6,0.5,1c0,0.4-0.1,0.8-0.4,1.1
					l-2.9,3.4l7.2,6.2c0.9-0.5,1.8-0.7,2.9-0.8c2-0.2,3.8,0.4,5.4,1.7c1.5,1.3,2.3,3,2.5,5c0.1,0.7,0,1.4-0.1,2
					c0.1-0.1,0.1-0.1,0.2-0.2c0.2-0.1,0.5-0.2,0.7-0.2C400.5,169.2,400.7,169.3,400.9,169.5L400.9,169.5z M421.1,195.8l-24.3-20.7
					c-0.3,0.2-0.7,0.4-1.1,0.6l7.6,6.5l0,0l17,14.5L421.1,195.8L421.1,195.8z M422.1,194.7l-24.1-20.6c-0.2,0.2-0.5,0.5-0.8,0.7
					l24.2,20.7L422.1,194.7L422.1,194.7z M423,193.5L399,172.9c-0.2,0.3-0.4,0.6-0.7,0.9l24.1,20.5L423,193.5L423,193.5z
					 M427.5,192.4l-1.3-0.2l-5,6l0.3,1c0.1,0.3,0.4,0.8,0.8,1.2l-0.1,0l2.4,2l0,0l1,0.8l0,0l1.4,1.2l0,0l0.8,0.7l0,0l0.3,0.3
					c0.3,0.3,0.6,0.4,1,0.3c0.4,0,0.7-0.2,0.9-0.5l4.8-5.6c0.2-0.3,0.3-0.6,0.3-1c-0.1-0.4-0.2-0.7-0.5-0.9l-5.9-5
					C428.5,192.8,428.1,192.6,427.5,192.4L427.5,192.4z M360.9,160.5c0.1-1.9,0.5-3.7,1.2-5.5c-1.7,2.9-2.7,5.9-2.9,9.1
					c-0.2,2.4,0.1,4.6,0.8,6.4c0.2,0.4,0.4,0.9,0.6,1.3c0.2,0.4,0.5,0.8,0.8,1.2c0.5,0.6,1,1.2,1.7,1.8c1.4,1.1,3.1,2,5.1,2.7
					c2.1,0.6,4.3,1,6.6,1c1,0,1.9,0.2,2.7,0.4c1.1,0.3,2.1,0.8,3,1.5c1.5,1,2.7,2.4,3.5,4.1c0.1,0.2,0.2,0.4,0.3,0.6
					c0.1,0.2,0.2,0.4,0.3,0.6c0.2,0.4,0.5,0.8,0.9,1.2c0.2,0.2,0.4,0.5,0.7,0.7c1.7,1.5,3.9,2.1,6.6,1.7c2.5-0.3,5-1.4,7.4-3.3l0,0
					l0,0l-0.1-0.1c0.2-0.1,0.4-0.2,0.5-0.4c-1.5,0.8-3.1,1.3-4.7,1.5c-3,0.4-5.5-0.3-7.5-2c-0.9-0.8-1.6-1.7-2.2-2.9
					c-0.8-1.8-1.9-3.2-3.5-4.3c-1.5-1.1-3.2-1.6-5-1.6c-2.5,0-4.8-0.4-7-1.1c-2.2-0.7-4.1-1.7-5.6-2.9l0,0l0,0
					C362,169.4,360.6,165.5,360.9,160.5L360.9,160.5L360.9,160.5z M400.2,170.5c0,0.1-0.1,0.3-0.1,0.4c-0.1,0.1-0.1,0.3-0.2,0.5
					l24.4,20.8l0.7-0.8l-24.6-21C400.3,170.3,400.3,170.4,400.2,170.5L400.2,170.5z M408,162c2,1.6,3.1,4,3.2,7
					c0.1,2.5-0.5,5.1-1.8,7.6l16.9,14.4l1.5,0.2c0.1,0,0.1,0,0.2,0c0.7,0.2,1.1,0.4,1.5,0.6l0,0l0.3-0.4l-0.1-0.7l0.1-0.1l0.6-0.8
					c0.1-0.1,0.2-0.1,0.3,0l1.3,1c0.1,0.1,0.1,0.2,0,0.3l-0.6,0.8c0,0,0,0.1-0.1,0.1l-0.6,0.1l-0.4,0.4l1.6,1.3l0.3-0.4l0-0.7
					l0.1-0.2l0.6-0.7c0.1-0.1,0.2-0.1,0.3,0l1.3,1.1c0,0,0.1,0,0.1,0.1c0,0.1,0,0.1,0,0.2l-0.6,0.8l-0.1,0.1l-0.7,0.1l-0.4,0.4
					l1.5,1.2l0.3-0.4l0-0.7l0-0.2l0.6-0.8c0.1-0.1,0.2-0.1,0.3,0l1.3,1.1c0.1,0.1,0.1,0.2,0,0.3l-0.6,0.7l-0.2,0.1l-0.7,0.1
					l-0.3,0.4l0.6,0.5c0,0,0.1,0,0.1,0.1c0.5,0.4,0.7,1,0.8,1.7c0,0,0,0,0,0c0,0.7-0.2,1.3-0.6,1.8l-4.8,5.6l0,0
					c-0.5,0.6-1.1,0.9-1.8,0.9c-0.7,0.1-1.4-0.1-1.9-0.6l-0.1-0.1c0,0-0.1,0-0.1-0.1l-0.5,0.5l0.1,0.7l0,0.2l-0.6,0.7
					c-0.1,0.1-0.2,0.1-0.3,0l-1.3-1.1c-0.1-0.1-0.1-0.2,0-0.3l0.6-0.7l0.1-0.1l0.7,0l0.5-0.5l-0.1-0.1c-0.1-0.1-0.2-0.2-0.2-0.3
					l-1.1-0.9c0,0,0,0-0.1-0.1l-0.6,0.5l0,0.7l-0.1,0.1l-0.6,0.7c-0.1,0.1-0.2,0.1-0.3,0l-1.3-1.1c-0.1-0.1-0.1-0.2-0.1-0.3l0.7-0.7
					l0.1-0.1l0.7,0l0.5-0.6l-0.1-0.1c-0.1-0.1-0.2-0.1-0.2-0.2l-1.1-1l-0.5,0.4l0,0.6l0,0.2l-0.6,0.7c-0.1,0.1-0.2,0.1-0.3,0
					l-1.3-1.1c-0.1-0.1-0.1-0.2,0-0.3l0.6-0.7l0.2-0.1l0.6,0l0.5-0.5l-0.1-0.1c-0.1-0.1-0.3-0.3-0.4-0.4c-0.4-0.5-0.7-1-0.8-1.4l0,0
					l-0.4-1.3c-0.1-0.1-0.1-0.2-0.2-0.3l-16.3-13.8c-0.8,1-1.5,1.7-2.2,2.2c-0.1,0.2-0.2,0.3-0.3,0.4c-0.1,0.1-0.2,0.1-0.3,0.2
					c-2.5,2-5.1,3.1-7.7,3.4c-3,0.4-5.5-0.3-7.5-2l0,0c-0.3-0.2-0.6-0.5-0.8-0.8l0,0c-0.4-0.4-0.8-0.9-1.1-1.4c0,0,0-0.1,0-0.1
					c-0.1-0.2-0.2-0.4-0.3-0.6l0,0c-0.1-0.2-0.2-0.4-0.3-0.6c0,0,0,0-0.1-0.1c-0.8-1.5-1.8-2.7-3.1-3.6l0,0c-0.8-0.6-1.7-1-2.6-1.3
					l0,0c-0.8-0.2-1.6-0.3-2.4-0.4c-2.4,0-4.8-0.3-7-1c-2.2-0.7-4.1-1.7-5.5-2.9c0,0,0,0,0,0c-0.7-0.6-1.3-1.3-1.8-2
					c-0.3-0.4-0.6-0.9-0.8-1.3l0,0c-0.3-0.5-0.5-0.9-0.7-1.4c-0.8-2-1.1-4.3-0.9-6.9c0.4-4.9,2.3-9.4,5.9-13.7
					c0.5-0.6,1-1.1,1.5-1.6c0.5-0.6,1-1.3,1.5-1.9c3.6-4.2,7.8-6.9,12.5-8.1l0,0c5-1.2,9-0.4,12.2,2.4l0,0c1.5,1.3,2.7,2.9,3.7,5
					l0,0c1,2,1.7,4.3,2.1,6.6l0,0c0.3,1.8,1.1,3.4,2.4,4.7c1.3,1.3,2.9,2.2,4.7,2.7l0,0C406,160.6,407,161.2,408,162L408,162
					L408,162z"/>
				<g id="Group-108" transform="translate(256.000000, 258.000000)">
					<path id="Fill-19" class="st0" d="M40,24.3L40,24.3c1,0.1,1.8,0.7,2.3,1.7l1.4,2.6l0.1,0.2c0.3,0.5,0.4,0.9,0.3,1.2l0,0.1
						l0,0.2c0,0.8,0.2,1.6,0.5,2.3c0.5,1,1.2,1.7,2.3,2.1c1,0.4,1.9,0.4,2.9,0l0.1,0l0.1-0.1l0.1,0c0.4-0.2,0.7-0.5,1-0.9
						c0.5-0.6,0.7-1.4,0.8-2.2c0.1-0.8-0.1-1.6-0.5-2.3c-0.4-0.7-0.9-1.3-1.6-1.7l-0.3-0.1l0,0c-0.2-0.1-0.5-0.5-0.8-1
						c0-0.1-0.1-0.1-0.1-0.2L47,23.4c-0.5-0.9-0.6-1.9-0.1-2.8l0.1-0.1l0.1-0.2l0-0.1c0.1-0.1,0.1-0.2,0.2-0.4
						c0.7-1.6,0.9-3.3,0.7-5.2c0-0.5-0.1-0.9-0.2-1.3c-1.5,1.9-3.7,3.6-6.5,5c-2.8,1.5-5.4,2.3-7.8,2.6c0.3,0.3,0.7,0.6,1,0.9
						c1.5,1.2,3.1,2,4.7,2.3c0.1,0.1,0.2,0.1,0.4,0.1l0.1,0L40,24.3z M30.7,4.6C29.5,6.2,29,8.1,29,10.4c0,0.2,0,0.3,0,0.5
						c2.3-0.3,4.7-1.1,7.2-2.4c2.4-1.3,4.4-2.8,6-4.5c-0.6-0.5-1.3-0.9-2-1.2c-2.5-1.2-4.9-1.3-7.1-0.3l-0.2,0.1l0,0l-0.1,0
						C32,3.2,31.3,3.8,30.7,4.6L30.7,4.6z M32.2,0.9c2.6-1.3,5.3-1.2,8.3,0.3c2.8,1.4,5.1,3.7,6.8,6.9c1,2,1.7,4.1,1.9,6.3
						c0.2,2.2-0.1,4.1-0.8,5.8c0,0,0,0.1,0,0.1c0,0,0,0,0,0c-0.1,0.2-0.2,0.4-0.3,0.6l0,0.1l0,0.1l-0.2,0.3
						c-0.2,0.6-0.1,1.2,0.2,1.8l1.4,2.7c0.1,0.1,0.1,0.2,0.2,0.3c0.2,0.3,0.3,0.4,0.5,0.5l0.1,0l0.3,0.2c0.8,0.5,1.5,1.2,2,2.1
						c0.5,0.9,0.7,1.9,0.7,3c-0.1,1-0.4,2-1,2.8c-0.4,0.5-0.8,1-1.3,1.3L50.6,36l-0.3,0.1c-1.2,0.5-2.4,0.5-3.7,0l0,0
						c-1.3-0.5-2.3-1.4-2.9-2.7l0,0.1c-0.5-0.9-0.7-1.9-0.7-2.9l0,0l0-0.5c0-0.2-0.1-0.4-0.2-0.6l0-0.1l-0.1-0.2l-1.5-2.7
						c-0.3-0.7-0.9-1.1-1.5-1.2l0,0l-0.5,0l0-0.1c-0.2,0-0.3-0.1-0.4-0.1c-1.8-0.4-3.6-1.3-5.2-2.6l0,0c-1.7-1.4-3.1-3.1-4.1-5.2
						l0,0c-1.3-2.4-2-4.9-1.9-7.5c0-2.7,0.6-4.9,2-6.7c0.5-0.6,1.3-1.4,2.5-2.2l0.3-0.1L32,1.1L32.2,0.9L32.2,0.9z"/>
					<path id="Fill-21" class="st0" d="M21.6,32.4L21.6,32.4c0.9-0.6,1.9-0.6,2.8-0.2l2.8,1.1c0.1,0,0.1,0.1,0.2,0.1
						c0.5,0.3,0.9,0.5,1,0.7l0,0l0.2,0.2c0.5,0.6,1.1,1.1,1.9,1.4c0.8,0.3,1.6,0.4,2.4,0.3c0.8-0.1,1.5-0.4,2-0.9
						c0.4-0.4,0.7-0.7,0.9-1.1l0,0l0.1-0.1l0-0.1c0.3-1,0.2-1.9-0.2-2.8c-0.5-1-1.2-1.6-2.3-2c-0.7-0.3-1.5-0.4-2.3-0.3l-0.2,0
						l-0.1,0c-0.3,0.1-0.8,0-1.3-0.2l-0.2-0.1l-2.6-1.1l-0.1-0.1c-1-0.4-1.7-1.1-1.9-2.1l0,0l0-0.3l-0.1,0c0-0.2,0-0.3-0.1-0.4
						c-0.5-1.6-1.4-3.1-2.8-4.5c-0.3-0.3-0.7-0.6-1-0.9c0,2.4-0.6,5.1-1.8,8.1c-1.2,2.9-2.7,5.3-4.4,7c0.4,0,0.9,0,1.3,0
						c2,0,3.7-0.4,5.1-1.2c0.2-0.1,0.3-0.1,0.4-0.2L21.6,32.4z M4.1,17.8c-0.7,0.7-1.3,1.5-1.7,2.4l0,0c0,0,0,0,0,0l-0.1,0.2
						c-0.9,2.3-0.5,4.6,1,7c0.4,0.7,0.9,1.3,1.4,1.8c1.6-1.7,2.9-3.8,3.9-6.4c1-2.7,1.6-5.1,1.7-7.4c-0.2,0-0.4,0-0.6,0
						C7.4,15.7,5.5,16.5,4.1,17.8L4.1,17.8z M16.8,15.1c2.1,0.9,4,2.1,5.5,3.6l0,0c1.5,1.5,2.6,3.1,3.1,4.9c0.1,0.1,0.1,0.3,0.2,0.4
						l0.1,0l0.1,0.5l0,0c0.2,0.7,0.6,1.1,1.3,1.4l0.1,0l0.1,0.1l2.7,1.1l0.2,0l0,0l0,0c0.3,0.1,0.5,0.2,0.6,0.2l0.4-0.1l0,0
						c1-0.1,2,0,3,0.4l0,0c1.3,0.5,2.3,1.4,2.9,2.7l0,0c0.6,1.2,0.7,2.4,0.3,3.7l-0.1,0.3l0,0.1l-0.1,0.1c-0.3,0.5-0.7,1-1.1,1.5
						l0,0c-0.7,0.7-1.6,1.1-2.7,1.3c-1,0.2-2,0-3-0.4c-1-0.4-1.7-1-2.3-1.7L27.9,35l-0.1-0.1l0,0c-0.1-0.1-0.3-0.2-0.6-0.4
						c-0.1,0-0.2-0.1-0.4-0.2l-2.8-1.1l0,0c-0.6-0.3-1.2-0.3-1.8,0l0,0.1l-0.2,0.1l-0.1,0l-0.1,0c-0.2,0.1-0.3,0.2-0.5,0.3
						c0,0,0,0-0.1,0c0,0,0,0-0.1,0c-1.7,0.9-3.6,1.3-5.7,1.3c-2.2,0-4.3-0.4-6.4-1.2c-3.4-1.4-5.9-3.4-7.5-6.1
						c-1.8-2.8-2.1-5.5-1.1-8.2l0.1-0.2l-0.1,0.1l0.1-0.3c0.8-1.3,1.4-2.2,2-2.7c1.6-1.5,3.8-2.4,6.4-2.6
						C11.7,13.7,14.3,14.1,16.8,15.1L16.8,15.1L16.8,15.1z"/>
				</g>
				
					<g id="Group-108-Copy" transform="translate(280.000000, 49.000000) rotate(45.000000) translate(-280.000000, -49.000000) translate(253.000000, 30.000000)">
					<path id="Fill-19_1_" class="st0" d="M40,24.3L40,24.3c1,0.1,1.8,0.7,2.3,1.7l1.4,2.6l0.1,0.2c0.3,0.5,0.4,0.9,0.3,1.2l0,0.1
						l0,0.2c0,0.8,0.2,1.6,0.5,2.3c0.5,1,1.2,1.7,2.3,2.1c1,0.4,1.9,0.4,2.9,0l0.1,0l0.1-0.1l0.1,0c0.4-0.2,0.7-0.5,1-0.9
						c0.5-0.6,0.7-1.4,0.8-2.2c0.1-0.8-0.1-1.6-0.5-2.3c-0.4-0.7-0.9-1.3-1.6-1.7l-0.3-0.1l0,0c-0.2-0.1-0.5-0.5-0.8-1
						c0-0.1-0.1-0.1-0.1-0.2L47,23.4c-0.5-0.9-0.6-1.9-0.1-2.8l0.1-0.1l0.1-0.2l0-0.1c0.1-0.1,0.1-0.2,0.2-0.4
						c0.7-1.6,0.9-3.3,0.7-5.2c0-0.5-0.1-0.9-0.2-1.3c-1.5,1.9-3.7,3.6-6.5,5c-2.8,1.5-5.4,2.3-7.8,2.6c0.3,0.3,0.7,0.6,1,0.9
						c1.5,1.2,3.1,2,4.7,2.3c0.1,0.1,0.2,0.1,0.4,0.1l0.1,0L40,24.3z M30.7,4.6C29.5,6.2,29,8.1,29,10.4c0,0.2,0,0.3,0,0.5
						c2.3-0.3,4.7-1.1,7.2-2.4c2.4-1.3,4.4-2.8,6-4.5c-0.6-0.5-1.3-0.9-2-1.2c-2.5-1.2-4.9-1.3-7.1-0.3l-0.2,0.1l0,0l-0.1,0
						C32,3.2,31.3,3.8,30.7,4.6L30.7,4.6z M32.2,0.9c2.6-1.3,5.3-1.2,8.3,0.3c2.8,1.4,5.1,3.7,6.8,6.9c1,2,1.7,4.1,1.9,6.3
						c0.2,2.2-0.1,4.1-0.8,5.8c0,0,0,0.1,0,0.1c0,0,0,0,0,0c-0.1,0.2-0.2,0.4-0.3,0.6l0,0.1l0,0.1l-0.2,0.3
						c-0.2,0.6-0.1,1.2,0.2,1.8l1.4,2.7c0.1,0.1,0.1,0.2,0.2,0.3c0.2,0.3,0.3,0.4,0.5,0.5l0.1,0l0.3,0.2c0.8,0.5,1.5,1.2,2,2.1
						c0.5,0.9,0.7,1.9,0.7,3c-0.1,1-0.4,2-1,2.8c-0.4,0.5-0.8,1-1.3,1.3L50.6,36l-0.3,0.1c-1.2,0.5-2.4,0.5-3.7,0l0,0
						c-1.3-0.5-2.3-1.4-2.9-2.7l0,0.1c-0.5-0.9-0.7-1.9-0.7-2.9l0,0l0-0.5c0-0.2-0.1-0.4-0.2-0.6l0-0.1l-0.1-0.2l-1.5-2.7
						c-0.3-0.7-0.9-1.1-1.5-1.2l0,0l-0.5,0l0-0.1c-0.2,0-0.3-0.1-0.4-0.1c-1.8-0.4-3.6-1.3-5.2-2.6l0,0c-1.7-1.4-3.1-3.1-4.1-5.2
						l0,0c-1.3-2.4-2-4.9-1.9-7.5c0-2.7,0.6-4.9,2-6.7c0.5-0.6,1.3-1.4,2.5-2.2l0.3-0.1L32,1.1L32.2,0.9L32.2,0.9z"/>
					<path id="Fill-21_1_" class="st0" d="M21.6,32.4L21.6,32.4c0.9-0.6,1.9-0.6,2.8-0.2l2.8,1.1c0.1,0,0.1,0.1,0.2,0.1
						c0.5,0.3,0.9,0.5,1,0.7l0,0l0.2,0.2c0.5,0.6,1.1,1.1,1.9,1.4c0.8,0.3,1.6,0.4,2.4,0.3c0.8-0.1,1.5-0.4,2-0.9
						c0.4-0.4,0.7-0.7,0.9-1.1l0,0l0.1-0.1l0-0.1c0.3-1,0.2-1.9-0.2-2.8c-0.5-1-1.2-1.6-2.3-2c-0.7-0.3-1.5-0.4-2.3-0.3l-0.2,0
						l-0.1,0c-0.3,0.1-0.8,0-1.3-0.2l-0.2-0.1l-2.6-1.1l-0.1-0.1c-1-0.4-1.7-1.1-1.9-2.1l0,0l0-0.3l-0.1,0c0-0.2,0-0.3-0.1-0.4
						c-0.5-1.6-1.4-3.1-2.8-4.5c-0.3-0.3-0.7-0.6-1-0.9c0,2.4-0.6,5.1-1.8,8.1c-1.2,2.9-2.7,5.3-4.4,7c0.4,0,0.9,0,1.3,0
						c2,0,3.7-0.4,5.1-1.2c0.2-0.1,0.3-0.1,0.4-0.2L21.6,32.4z M4.1,17.8c-0.7,0.7-1.3,1.5-1.7,2.4l0,0c0,0,0,0,0,0l-0.1,0.2
						c-0.9,2.3-0.5,4.6,1,7c0.4,0.7,0.9,1.3,1.4,1.8c1.6-1.7,2.9-3.8,3.9-6.4c1-2.7,1.6-5.1,1.7-7.4c-0.2,0-0.4,0-0.6,0
						C7.4,15.7,5.5,16.5,4.1,17.8L4.1,17.8z M16.8,15.1c2.1,0.9,4,2.1,5.5,3.6l0,0c1.5,1.5,2.6,3.1,3.1,4.9c0.1,0.1,0.1,0.3,0.2,0.4
						l0.1,0l0.1,0.5l0,0c0.2,0.7,0.6,1.1,1.3,1.4l0.1,0l0.1,0.1l2.7,1.1l0.2,0l0,0l0,0c0.3,0.1,0.5,0.2,0.6,0.2l0.4-0.1l0,0
						c1-0.1,2,0,3,0.4l0,0c1.3,0.5,2.3,1.4,2.9,2.7l0,0c0.6,1.2,0.7,2.4,0.3,3.7l-0.1,0.3l0,0.1l-0.1,0.1c-0.3,0.5-0.7,1-1.1,1.5
						l0,0c-0.7,0.7-1.6,1.1-2.7,1.3c-1,0.2-2,0-3-0.4c-1-0.4-1.7-1-2.3-1.7L27.9,35l-0.1-0.1l0,0c-0.1-0.1-0.3-0.2-0.6-0.4
						c-0.1,0-0.2-0.1-0.4-0.2l-2.8-1.1l0,0c-0.6-0.3-1.2-0.3-1.8,0l0,0.1l-0.2,0.1l-0.1,0l-0.1,0c-0.2,0.1-0.3,0.2-0.5,0.3
						c0,0,0,0-0.1,0c0,0,0,0-0.1,0c-1.7,0.9-3.6,1.3-5.7,1.3c-2.2,0-4.3-0.4-6.4-1.2c-3.4-1.4-5.9-3.4-7.5-6.1
						c-1.8-2.8-2.1-5.5-1.1-8.2l0.1-0.2l-0.1,0.1l0.1-0.3c0.8-1.3,1.4-2.2,2-2.7c1.6-1.5,3.8-2.4,6.4-2.6
						C11.7,13.7,14.3,14.1,16.8,15.1L16.8,15.1L16.8,15.1z"/>
				</g>
				
					<g id="Group-108-Copy-2" transform="translate(33.000000, 168.000000) rotate(45.000000) translate(-33.000000, -168.000000) translate(6.000000, 149.000000)">
					<path id="Fill-19_2_" class="st0" d="M40,24.3L40,24.3c1,0.1,1.8,0.7,2.3,1.7l1.4,2.6l0.1,0.2c0.3,0.5,0.4,0.9,0.3,1.2l0,0.1
						l0,0.2c0,0.8,0.2,1.6,0.5,2.3c0.5,1,1.2,1.7,2.3,2.1c1,0.4,1.9,0.4,2.9,0l0.1,0l0.1-0.1l0.1,0c0.4-0.2,0.7-0.5,1-0.9
						c0.5-0.6,0.7-1.4,0.8-2.2c0.1-0.8-0.1-1.6-0.5-2.3c-0.4-0.7-0.9-1.3-1.6-1.7l-0.3-0.1l0,0c-0.2-0.1-0.5-0.5-0.8-1
						c0-0.1-0.1-0.1-0.1-0.2L47,23.4c-0.5-0.9-0.6-1.9-0.1-2.8l0.1-0.1l0.1-0.2l0-0.1c0.1-0.1,0.1-0.2,0.2-0.4
						c0.7-1.6,0.9-3.3,0.7-5.2c0-0.5-0.1-0.9-0.2-1.3c-1.5,1.9-3.7,3.6-6.5,5c-2.8,1.5-5.4,2.3-7.8,2.6c0.3,0.3,0.7,0.6,1,0.9
						c1.5,1.2,3.1,2,4.7,2.3c0.1,0.1,0.2,0.1,0.4,0.1l0.1,0L40,24.3z M30.7,4.6C29.5,6.2,29,8.1,29,10.4c0,0.2,0,0.3,0,0.5
						c2.3-0.3,4.7-1.1,7.2-2.4c2.4-1.3,4.4-2.8,6-4.5c-0.6-0.5-1.3-0.9-2-1.2c-2.5-1.2-4.9-1.3-7.1-0.3l-0.2,0.1l0,0l-0.1,0
						C32,3.2,31.3,3.8,30.7,4.6L30.7,4.6z M32.2,0.9c2.6-1.3,5.3-1.2,8.3,0.3c2.8,1.4,5.1,3.7,6.8,6.9c1,2,1.7,4.1,1.9,6.3
						c0.2,2.2-0.1,4.1-0.8,5.8c0,0,0,0.1,0,0.1c0,0,0,0,0,0c-0.1,0.2-0.2,0.4-0.3,0.6l0,0.1l0,0.1l-0.2,0.3
						c-0.2,0.6-0.1,1.2,0.2,1.8l1.4,2.7c0.1,0.1,0.1,0.2,0.2,0.3c0.2,0.3,0.3,0.4,0.5,0.5l0.1,0l0.3,0.2c0.8,0.5,1.5,1.2,2,2.1
						c0.5,0.9,0.7,1.9,0.7,3c-0.1,1-0.4,2-1,2.8c-0.4,0.5-0.8,1-1.3,1.3L50.6,36l-0.3,0.1c-1.2,0.5-2.4,0.5-3.7,0l0,0
						c-1.3-0.5-2.3-1.4-2.9-2.7l0,0.1c-0.5-0.9-0.7-1.9-0.7-2.9l0,0l0-0.5c0-0.2-0.1-0.4-0.2-0.6l0-0.1l-0.1-0.2l-1.5-2.7
						c-0.3-0.7-0.9-1.1-1.5-1.2l0,0l-0.5,0l0-0.1c-0.2,0-0.3-0.1-0.4-0.1c-1.8-0.4-3.6-1.3-5.2-2.6l0,0c-1.7-1.4-3.1-3.1-4.1-5.2
						l0,0c-1.3-2.4-2-4.9-1.9-7.5c0-2.7,0.6-4.9,2-6.7c0.5-0.6,1.3-1.4,2.5-2.2l0.3-0.1L32,1.1L32.2,0.9L32.2,0.9z"/>
					<path id="Fill-21_2_" class="st0" d="M21.6,32.4L21.6,32.4c0.9-0.6,1.9-0.6,2.8-0.2l2.8,1.1c0.1,0,0.1,0.1,0.2,0.1
						c0.5,0.3,0.9,0.5,1,0.7l0,0l0.2,0.2c0.5,0.6,1.1,1.1,1.9,1.4c0.8,0.3,1.6,0.4,2.4,0.3c0.8-0.1,1.5-0.4,2-0.9
						c0.4-0.4,0.7-0.7,0.9-1.1l0,0l0.1-0.1l0-0.1c0.3-1,0.2-1.9-0.2-2.8c-0.5-1-1.2-1.6-2.3-2c-0.7-0.3-1.5-0.4-2.3-0.3l-0.2,0
						l-0.1,0c-0.3,0.1-0.8,0-1.3-0.2l-0.2-0.1l-2.6-1.1l-0.1-0.1c-1-0.4-1.7-1.1-1.9-2.1l0,0l0-0.3l-0.1,0c0-0.2,0-0.3-0.1-0.4
						c-0.5-1.6-1.4-3.1-2.8-4.5c-0.3-0.3-0.7-0.6-1-0.9c0,2.4-0.6,5.1-1.8,8.1c-1.2,2.9-2.7,5.3-4.4,7c0.4,0,0.9,0,1.3,0
						c2,0,3.7-0.4,5.1-1.2c0.2-0.1,0.3-0.1,0.4-0.2L21.6,32.4z M4.1,17.8c-0.7,0.7-1.3,1.5-1.7,2.4l0,0c0,0,0,0,0,0l-0.1,0.2
						c-0.9,2.3-0.5,4.6,1,7c0.4,0.7,0.9,1.3,1.4,1.8c1.6-1.7,2.9-3.8,3.9-6.4c1-2.7,1.6-5.1,1.7-7.4c-0.2,0-0.4,0-0.6,0
						C7.4,15.7,5.5,16.5,4.1,17.8L4.1,17.8z M16.8,15.1c2.1,0.9,4,2.1,5.5,3.6l0,0c1.5,1.5,2.6,3.1,3.1,4.9c0.1,0.1,0.1,0.3,0.2,0.4
						l0.1,0l0.1,0.5l0,0c0.2,0.7,0.6,1.1,1.3,1.4l0.1,0l0.1,0.1l2.7,1.1l0.2,0l0,0l0,0c0.3,0.1,0.5,0.2,0.6,0.2l0.4-0.1l0,0
						c1-0.1,2,0,3,0.4l0,0c1.3,0.5,2.3,1.4,2.9,2.7l0,0c0.6,1.2,0.7,2.4,0.3,3.7l-0.1,0.3l0,0.1l-0.1,0.1c-0.3,0.5-0.7,1-1.1,1.5
						l0,0c-0.7,0.7-1.6,1.1-2.7,1.3c-1,0.2-2,0-3-0.4c-1-0.4-1.7-1-2.3-1.7L27.9,35l-0.1-0.1l0,0c-0.1-0.1-0.3-0.2-0.6-0.4
						c-0.1,0-0.2-0.1-0.4-0.2l-2.8-1.1l0,0c-0.6-0.3-1.2-0.3-1.8,0l0,0.1l-0.2,0.1l-0.1,0l-0.1,0c-0.2,0.1-0.3,0.2-0.5,0.3
						c0,0,0,0-0.1,0c0,0,0,0-0.1,0c-1.7,0.9-3.6,1.3-5.7,1.3c-2.2,0-4.3-0.4-6.4-1.2c-3.4-1.4-5.9-3.4-7.5-6.1
						c-1.8-2.8-2.1-5.5-1.1-8.2l0.1-0.2l-0.1,0.1l0.1-0.3c0.8-1.3,1.4-2.2,2-2.7c1.6-1.5,3.8-2.4,6.4-2.6
						C11.7,13.7,14.3,14.1,16.8,15.1L16.8,15.1L16.8,15.1z"/>
				</g>
				<path id="Fill-23" class="st0" d="M138.1,191.2c1.7-1.1,2.8-1.9,3.2-2.3c0.8-0.7,1.2-1.1,1.3-1.3c0.3-0.4,0.3-0.7,0.1-1.1
					c-0.2-0.3-0.4-0.4-0.9-0.4c-0.3,0-0.8,0.1-1.5,0.4c-0.7,0.2-2,0.8-4,1.9c-0.2,0.1-0.4,0.2-0.5,0.3c-1.2,0.6-2.2,1.2-3.3,1.8
					l-7.9,4.7l1.9,3l7.9-4.7C135.9,192.6,137.1,191.8,138.1,191.2 M123.3,201.5l2.8-1.6l-0.2-0.4l0,0l-2.8-4.3l0,0l-0.4-0.6
					l-2.7,1.7c1.3,1.9,2.4,3.7,3.3,5.3C123.4,201.6,123.3,201.5,123.3,201.5 M114,201.9c0.3,0.3,0.9,0.7,1.7,1.1
					c0.7,0.3,1.3,0.6,1.7,0.8c0.5,0.3,0.8,0.7,1.1,1.1c0.4,0.5,0.8,1.2,1,2c0.4-0.2,0.7-0.4,1.1-0.7c0.3-0.3,0.6-0.7,0.9-1
					c0-0.1,0.1-0.2,0.2-0.3c0.1-0.2,0.2-0.4,0.3-0.6c0.2-0.4,0.3-0.9,0.4-1.4c0-0.2,0-0.3,0.1-0.5c0-0.1,0-0.2,0-0.4
					c-0.8-1.6-1.9-3.3-3.2-5.1l-0.1,0.1c0,0,0,0-0.1,0c-0.3-0.1-0.7-0.2-1.1-0.3c-0.1,0-0.1,0-0.2,0c-0.2,0-0.5-0.1-0.7-0.1l0,0
					c-0.2,0-0.4,0-0.6-0.1c0,0,0,0-0.1,0c-1.4,0-2.6,0.4-3.7,1c-0.2,0.1-0.2,0.1-0.2,0.1l0.2,1.8C113,200.5,113.4,201.3,114,201.9
					 M107,203.8c0.2-2.9,1.8-5.4,4.6-7.4c0.1-0.2,0.3-0.3,0.5-0.4c0.4-0.2,0.8-0.3,1.2-0.5c0.7-0.2,1.4-0.5,2.2-0.6
					c0.5-0.1,1-0.2,1.5-0.1l0.1-0.1l0.8,0.2c0.1,0,0.3,0.1,0.5,0.1c0.1,0,0.3,0,0.4,0c0.2,0.1,0.5,0.1,0.7,0.1l3.5-2.2l0.5,0.8l0,0
					l0.3,0.4l8-4.8c1-0.6,2.1-1.2,3.3-1.8c0.2-0.1,0.3-0.2,0.5-0.3c2.2-1.1,3.6-1.7,4.3-1.9l0,0c0.9-0.2,1.5-0.3,1.8-0.3l0,0
					c0.9,0,1.5,0.3,1.9,1l0,0c0.4,0.8,0.4,1.5,0,2.2c-0.1,0.3-0.6,0.8-1.4,1.6c-0.5,0.5-1.6,1.3-3.4,2.5c-1,0.7-2.2,1.4-3.6,2.3
					l-7.9,4.7l0.3,0.4l0,0l0.4,0.6l-3.4,2l0,0.1c0,0.1,0,0.3,0,0.4l0,0.1c-0.1,0.6-0.3,1.2-0.5,1.7c-0.1,0.3-0.2,0.6-0.4,0.8
					l-0.1,0.1c-0.1,0.1-0.1,0.2-0.2,0.2l0,0.1c-0.3,0.5-0.7,0.9-1.1,1.3l0,0l0,0c-0.5,0.4-0.9,0.7-1.4,0.9l0.1,0
					c-1.7,0.9-3.7,1.1-6,0.3l0,0l-0.1,0c-1-0.4-1.9-0.2-2.7,0.6l0,0c-0.4,0.4-0.7,0.9-0.9,1.4c0,0.1-0.1,0.2-0.1,0.3
					c-0.1,0.1-0.2,0.2-0.3,0.3c0,0-0.1,0-0.1,0.1c-0.2,0.1-0.3,0.1-0.5,0.1c0,0-0.1,0-0.1,0c0,0,0,0,0,0c0,0-0.1,0-0.1,0
					c-0.1,0-0.2-0.1-0.2-0.1c-0.1-0.1-0.2-0.2-0.3-0.2C107.6,208.9,106.8,206.6,107,203.8L107,203.8"/>
				<path id="Fill-23-Copy" class="st0" d="M382.9,43.4c2-0.1,3.3-0.2,3.9-0.4c1-0.2,1.6-0.4,1.8-0.5c0.4-0.2,0.7-0.5,0.7-0.9
					c0-0.3-0.2-0.6-0.6-0.7c-0.2-0.1-0.7-0.3-1.5-0.5c-0.7-0.2-2.1-0.3-4.4-0.4c-0.2,0-0.4,0-0.6,0c-1.3,0-2.6-0.1-3.7-0.1l-9.2,0.1
					l0.2,3.6l9.2-0.1C380.3,43.5,381.7,43.5,382.9,43.4 M364.9,44.9l3.2,0l0-0.5l0,0l-0.2-5.1l0,0l0-0.7l-3.2,0.1
					c0.2,2.3,0.3,4.4,0.2,6.3C364.9,45.1,364.9,45,364.9,44.9 M356.6,40.6c0.1,0.4,0.4,1.1,1,1.8c0.5,0.6,0.9,1.1,1.1,1.6
					c0.2,0.5,0.4,1,0.5,1.5c0.1,0.7,0.1,1.4-0.1,2.3c0.4,0,0.8,0,1.3-0.1c0.5-0.1,0.9-0.3,1.3-0.4c0.1,0,0.2-0.1,0.3-0.1
					c0.2-0.1,0.4-0.3,0.6-0.4c0.4-0.3,0.7-0.6,1-1c0.1-0.1,0.2-0.3,0.3-0.4c0-0.1,0.1-0.2,0.2-0.3c0.1-1.8,0-3.8-0.2-6l-0.1,0
					c0,0,0-0.1,0-0.1c-0.2-0.3-0.5-0.5-0.8-0.8c0,0-0.1-0.1-0.1-0.1c-0.2-0.2-0.3-0.3-0.5-0.4l0,0c-0.2-0.1-0.3-0.2-0.5-0.4
					c0,0,0,0-0.1,0c-1.2-0.7-2.5-1-3.7-1c-0.2,0-0.3,0-0.2,0l-0.8,1.7C356.5,39,356.4,39.9,356.6,40.6 M349.7,38.8
					c1.6-2.4,4.2-3.8,7.7-4.1c0.1-0.1,0.4-0.1,0.7-0.1c0.4,0,0.8,0.1,1.3,0.2c0.7,0.1,1.5,0.3,2.2,0.5c0.5,0.1,0.9,0.4,1.4,0.6
					l0.1-0.1l0.6,0.6c0.1,0.1,0.2,0.2,0.4,0.3c0.1,0.1,0.2,0.1,0.3,0.2c0.2,0.2,0.4,0.3,0.5,0.5l4.1-0.2l0.1,1l0,0l0,0.5l9.3-0.1
					c1.2,0,2.4,0.1,3.8,0.1c0.2,0,0.4,0,0.6,0c2.4,0.1,4,0.3,4.7,0.5l0,0c0.9,0.3,1.4,0.5,1.7,0.7l0,0c0.8,0.4,1.1,1,1.1,1.8l0,0
					c0,0.9-0.4,1.5-1.2,1.9c-0.3,0.2-1,0.4-2.1,0.7c-0.6,0.2-2,0.4-4.2,0.5c-1.2,0.1-2.6,0.1-4.3,0.2l-9.2,0.1l0,0.5l-0.1,0l0,0.7
					l-3.9,0l-0.1,0.1c-0.1,0.1-0.2,0.2-0.2,0.3l-0.1,0.1c-0.4,0.5-0.8,0.9-1.3,1.3c-0.2,0.2-0.5,0.4-0.7,0.5l-0.1,0.1
					c-0.1,0-0.2,0.1-0.3,0.1l-0.1,0c-0.5,0.2-1.1,0.4-1.6,0.6l0,0l0,0c-0.6,0.1-1.2,0.1-1.7,0.1l0.1,0c-1.9,0-3.7-0.9-5.4-2.7l0,0
					l-0.1-0.1c-0.7-0.8-1.5-1.1-2.6-0.8l0,0c-0.6,0.2-1,0.4-1.4,0.8c-0.1,0.1-0.2,0.2-0.3,0.2c-0.1,0.1-0.3,0.1-0.4,0.1
					c0,0-0.1,0-0.1,0c-0.2,0-0.3-0.1-0.5-0.2c0,0,0,0-0.1,0c0,0,0,0,0,0c0,0-0.1-0.1-0.1-0.1c-0.1-0.1-0.1-0.1-0.2-0.2
					c-0.1-0.1-0.1-0.2-0.1-0.4C347.6,43.5,348.1,41.1,349.7,38.8L349.7,38.8"/>
				<path id="Fill-23-Copy-2" class="st0" d="M295.9,361.4c2-0.1,3.3-0.2,3.9-0.4c1-0.2,1.6-0.4,1.8-0.5c0.4-0.2,0.7-0.5,0.7-0.9
					c0-0.3-0.2-0.6-0.6-0.7c-0.2-0.1-0.7-0.3-1.5-0.5c-0.7-0.2-2.1-0.3-4.4-0.4c-0.2,0-0.4,0-0.6,0c-1.3,0-2.6-0.1-3.7-0.1l-9.2,0.1
					l0.2,3.6l9.2-0.1C293.3,361.5,294.7,361.5,295.9,361.4 M277.9,362.9l3.2,0l0-0.5l0,0l-0.2-5.1l0,0l0-0.7l-3.2,0.1
					c0.2,2.3,0.3,4.4,0.2,6.3C277.9,363.1,277.9,363,277.9,362.9 M269.6,358.6c0.1,0.4,0.4,1.1,1,1.8c0.5,0.6,0.9,1.1,1.1,1.6
					c0.2,0.5,0.4,1,0.5,1.5c0.1,0.7,0.1,1.4-0.1,2.3c0.4,0,0.8,0,1.3-0.1c0.5-0.1,0.9-0.3,1.3-0.4c0.1,0,0.2-0.1,0.3-0.1
					c0.2-0.1,0.4-0.3,0.6-0.4c0.4-0.3,0.7-0.6,1-1c0.1-0.1,0.2-0.3,0.3-0.4c0-0.1,0.1-0.2,0.2-0.3c0.1-1.8,0-3.8-0.2-6l-0.1,0
					c0,0,0-0.1,0-0.1c-0.2-0.3-0.5-0.5-0.8-0.8c0,0-0.1-0.1-0.1-0.1c-0.2-0.2-0.3-0.3-0.5-0.4l0,0c-0.2-0.1-0.3-0.2-0.5-0.4
					c0,0,0,0-0.1,0c-1.2-0.7-2.5-1-3.7-1c-0.2,0-0.3,0-0.2,0l-0.8,1.7C269.5,357,269.4,357.9,269.6,358.6 M262.7,356.8
					c1.6-2.4,4.2-3.8,7.7-4.1c0.1-0.1,0.4-0.1,0.7-0.1c0.4,0,0.8,0.1,1.3,0.2c0.7,0.1,1.5,0.3,2.2,0.5c0.5,0.1,0.9,0.4,1.4,0.6
					l0.1-0.1l0.6,0.6c0.1,0.1,0.2,0.2,0.4,0.3c0.1,0.1,0.2,0.1,0.3,0.2c0.2,0.2,0.4,0.3,0.5,0.5l4.1-0.2l0.1,1l0,0l0,0.5l9.3-0.1
					c1.2,0,2.4,0.1,3.8,0.1c0.2,0,0.4,0,0.6,0c2.4,0.1,4,0.3,4.7,0.5l0,0c0.9,0.3,1.4,0.5,1.7,0.7l0,0c0.8,0.4,1.1,1,1.1,1.8l0,0
					c0,0.9-0.4,1.5-1.2,1.9c-0.3,0.2-1,0.4-2.1,0.7c-0.6,0.2-2,0.4-4.2,0.5c-1.2,0.1-2.6,0.1-4.3,0.2l-9.2,0.1l0,0.5l-0.1,0l0,0.7
					l-3.9,0l-0.1,0.1c-0.1,0.1-0.2,0.2-0.2,0.3l-0.1,0.1c-0.4,0.5-0.8,0.9-1.3,1.3c-0.2,0.2-0.5,0.4-0.7,0.5l-0.1,0.1
					c-0.1,0-0.2,0.1-0.3,0.1l-0.1,0c-0.5,0.2-1.1,0.4-1.6,0.6l0,0l0,0c-0.6,0.1-1.2,0.1-1.7,0.1l0.1,0c-1.9,0-3.7-0.9-5.4-2.7l0,0
					l-0.1-0.1c-0.7-0.8-1.5-1.1-2.6-0.8l0,0c-0.6,0.2-1,0.4-1.4,0.8c-0.1,0.1-0.2,0.2-0.3,0.2c-0.1,0.1-0.3,0.1-0.4,0.1
					c0,0-0.1,0-0.1,0c-0.2,0-0.3-0.1-0.5-0.2c0,0,0,0-0.1,0c0,0,0,0,0,0c0,0-0.1-0.1-0.1-0.1c-0.1-0.1-0.1-0.1-0.2-0.2
					c-0.1-0.1-0.1-0.2-0.1-0.4C260.6,361.5,261.1,359.1,262.7,356.8L262.7,356.8"/>
				<path id="Fill-33" class="st0" d="M184.8,224.7c-0.7,1.3-0.7,2.8,0,4.3c0.7,1.5,2,2.7,3.7,3.6c1.6,0.8,3.2,1.1,4.8,1
					c1.8-0.2,3.1-1,3.9-2.5l10-19.1l15.3,15.2l-8.7,16.7c-0.8-1.8-2.1-3.2-3.8-4.1c-1.6-0.8-3.3-1.1-5.1-0.9
					c-1.7,0.3-2.9,1.1-3.6,2.4c-0.7,1.4-0.7,2.8,0.1,4.4c0.8,1.5,2,2.7,3.7,3.6c1.5,0.8,3.1,1.1,4.7,1c1.9-0.2,3.2-1,4-2.4
					l13.7-26.3l-18.3-17.6l-12.1,23.3c-0.6-1.6-1.9-2.8-3.8-3.8c-1.7-0.9-3.4-1.2-5.1-1C186.6,222.6,185.5,223.4,184.8,224.7
					 M194.1,222.6c1.2,0.6,2.2,1.4,3,2.2L209,202l20.4,19.6l-14.2,27.3c-1,1.9-2.7,3-5.1,3.2c-1.9,0.2-3.7-0.2-5.5-1.1
					c-2-1-3.4-2.4-4.3-4.2l0,0c-1-2-1-3.9-0.1-5.6c0.8-1.7,2.3-2.7,4.6-3.1l0.1,0l0,0c2.1-0.3,4,0.1,5.9,1c1.2,0.6,2.2,1.4,3.1,2.4
					l7.1-13.6l-13.2-13.1l-9.1,17.4c-1,1.9-2.6,3-5,3.2c-1.9,0.2-3.7-0.2-5.5-1.1c-2.1-1.1-3.5-2.5-4.3-4.3l0,0
					c-0.9-2-0.9-3.8,0-5.5c0.9-1.7,2.4-2.7,4.5-3.1C190.1,221.1,192.1,221.5,194.1,222.6"/>
				<path id="Fill-33_1_" class="st0" d="M184.8,224.7c-0.7,1.3-0.7,2.8,0,4.3c0.7,1.5,2,2.7,3.7,3.6c1.6,0.8,3.2,1.1,4.8,1
					c1.8-0.2,3.1-1,3.9-2.5l10-19.1l15.3,15.2l-8.7,16.7c-0.8-1.8-2.1-3.2-3.8-4.1c-1.6-0.8-3.3-1.1-5.1-0.9
					c-1.7,0.3-2.9,1.1-3.6,2.4c-0.7,1.4-0.7,2.8,0.1,4.4c0.8,1.5,2,2.7,3.7,3.6c1.5,0.8,3.1,1.1,4.7,1c1.9-0.2,3.2-1,4-2.4
					l13.7-26.3l-18.3-17.6l-12.1,23.3c-0.6-1.6-1.9-2.8-3.8-3.8c-1.7-0.9-3.4-1.2-5.1-1C186.6,222.6,185.5,223.4,184.8,224.7
					 M194.1,222.6c1.2,0.6,2.2,1.4,3,2.2L209,202l20.4,19.6l-14.2,27.3c-1,1.9-2.7,3-5.1,3.2c-1.9,0.2-3.7-0.2-5.5-1.1
					c-2-1-3.4-2.4-4.3-4.2l0,0c-1-2-1-3.9-0.1-5.6c0.8-1.7,2.3-2.7,4.6-3.1l0.1,0l0,0c2.1-0.3,4,0.1,5.9,1c1.2,0.6,2.2,1.4,3.1,2.4
					l7.1-13.6l-13.2-13.1l-9.1,17.4c-1,1.9-2.6,3-5,3.2c-1.9,0.2-3.7-0.2-5.5-1.1c-2.1-1.1-3.5-2.5-4.3-4.3l0,0
					c-0.9-2-0.9-3.8,0-5.5c0.9-1.7,2.4-2.7,4.5-3.1C190.1,221.1,192.1,221.5,194.1,222.6"/>
				<path id="Fill-33_2_" class="st0" d="M316.8,206.7c-0.7,1.3-0.7,2.8,0,4.3c0.7,1.5,2,2.7,3.7,3.6c1.6,0.8,3.2,1.1,4.8,1
					c1.8-0.2,3.1-1,3.9-2.5l10-19.1l15.3,15.2l-8.7,16.7c-0.8-1.8-2.1-3.2-3.8-4.1c-1.6-0.8-3.3-1.1-5.1-0.9
					c-1.7,0.3-2.9,1.1-3.6,2.4c-0.7,1.4-0.7,2.8,0.1,4.4c0.8,1.5,2,2.7,3.7,3.6c1.5,0.8,3.1,1.1,4.7,1c1.9-0.2,3.2-1,4-2.4
					l13.7-26.3l-18.3-17.6l-12.1,23.3c-0.6-1.6-1.9-2.8-3.8-3.8c-1.7-0.9-3.4-1.2-5.1-1C318.6,204.6,317.5,205.4,316.8,206.7
					 M326.1,204.6c1.2,0.6,2.2,1.4,3,2.2L341,184l20.4,19.6l-14.2,27.3c-1,1.9-2.7,3-5.1,3.2c-1.9,0.2-3.7-0.2-5.5-1.1
					c-2-1-3.4-2.4-4.3-4.2l0,0c-1-2-1-3.9-0.1-5.6c0.8-1.7,2.3-2.7,4.6-3.1l0.1,0l0,0c2.1-0.3,4,0.1,5.9,1c1.2,0.6,2.2,1.4,3.1,2.4
					l7.1-13.6l-13.2-13.1l-9.1,17.4c-1,1.9-2.6,3-5,3.2c-1.9,0.2-3.7-0.2-5.5-1.1c-2.1-1.1-3.5-2.5-4.3-4.3l0,0
					c-0.9-2-0.9-3.8,0-5.5c0.9-1.7,2.4-2.7,4.5-3.1C322.1,203.1,324.1,203.5,326.1,204.6"/>
				<path id="Fill-33-Copy" class="st0" d="M398.8,113.7c-0.7,1.3-0.7,2.8,0,4.3c0.7,1.5,2,2.7,3.7,3.6c1.6,0.8,3.2,1.1,4.8,1
					c1.8-0.2,3.1-1,3.9-2.5l10-19.1l15.3,15.2l-8.7,16.7c-0.8-1.8-2.1-3.2-3.8-4.1c-1.6-0.8-3.3-1.1-5.1-0.9
					c-1.7,0.3-2.9,1.1-3.6,2.4c-0.7,1.4-0.7,2.8,0.1,4.4c0.8,1.5,2,2.7,3.7,3.6c1.5,0.8,3.1,1.1,4.7,1c1.9-0.2,3.2-1,4-2.4
					l13.7-26.3l-18.3-17.6l-12.1,23.3c-0.6-1.6-1.9-2.8-3.8-3.8c-1.7-0.9-3.4-1.2-5.1-1C400.6,111.6,399.5,112.4,398.8,113.7
					 M408.1,111.6c1.2,0.6,2.2,1.4,3,2.2L423,91l20.4,19.6l-14.2,27.3c-1,1.9-2.7,3-5.1,3.2c-1.9,0.2-3.7-0.2-5.5-1.1
					c-2-1-3.4-2.4-4.3-4.2l0,0c-1-2-1-3.9-0.1-5.6c0.8-1.7,2.3-2.7,4.6-3.1l0.1,0l0,0c2.1-0.3,4,0.1,5.9,1c1.2,0.6,2.2,1.4,3.1,2.4
					l7.1-13.6l-13.2-13.1l-9.1,17.4c-1,1.9-2.6,3-5,3.2c-1.9,0.2-3.7-0.2-5.5-1.1c-2.1-1.1-3.5-2.5-4.3-4.3l0,0
					c-0.9-2-0.9-3.8,0-5.5c0.9-1.7,2.4-2.7,4.5-3.1C404.1,110.1,406.1,110.5,408.1,111.6"/>
				<path id="Fill-37" class="st0" d="M334.1,326.2l2.1-3.6l2.1,3.7L334.1,326.2z M365.1,312.2l-2,1.1l-2.6-4.8l2-1.1L365.1,312.2
					L365.1,312.2z M359.1,309.3l2.6,4.8l-21.9,12.1l-2.6-4.8L359.1,309.3L359.1,309.3z M369.2,309.1c-0.2,0.7-0.6,1.3-1.3,1.6
					l-1.4,0.7l-2.6-4.8l1.4-0.7c0.7-0.3,1.4-0.4,2.1-0.2c0.7,0.2,1.2,0.6,1.7,1.3C369.3,307.6,369.4,308.3,369.2,309.1L369.2,309.1z
					 M370.7,309.5c0.3-1.1,0.2-2.2-0.3-3.3c-0.6-1-1.5-1.7-2.6-2c-1.1-0.3-2.2-0.2-3.3,0.4l-28.6,15.9c0,0,0,0-0.1,0l-0.2,0.3l0,0
					l-3.4,5.9L332,327l0,0.1l0.1,0.2c0,0.1,0.1,0.1,0.1,0.1l0,0l0.1,0.1l0,0l0.1,0.1l0.1,0l0.1,0.1c0.1,0,0.1,0,0.2,0l0,0l6.8,0.3
					l0,0l0.3-0.1c0,0,0,0,0,0l28.5-15.9C369.6,311.5,370.3,310.6,370.7,309.5L370.7,309.5z"/>
				<path id="Fill-37-Copy-2" class="st0" d="M179.1,82.2l2.1-3.6l2.1,3.7L179.1,82.2z M210.1,68.2l-2,1.1l-2.6-4.8l2-1.1
					L210.1,68.2L210.1,68.2z M204.1,65.3l2.6,4.8l-21.9,12.1l-2.6-4.8L204.1,65.3L204.1,65.3z M214.2,65.1c-0.2,0.7-0.6,1.3-1.3,1.6
					l-1.4,0.7l-2.6-4.8l1.4-0.7c0.7-0.3,1.4-0.4,2.1-0.2c0.7,0.2,1.2,0.6,1.7,1.3C214.3,63.6,214.4,64.3,214.2,65.1L214.2,65.1z
					 M215.7,65.5c0.3-1.1,0.2-2.2-0.3-3.3c-0.6-1-1.5-1.7-2.6-2c-1.1-0.3-2.2-0.2-3.3,0.4l-28.6,15.9c0,0,0,0-0.1,0l-0.2,0.3l0,0
					l-3.4,5.9L177,83l0,0.1l0.1,0.2c0,0.1,0.1,0.1,0.1,0.1l0,0l0.1,0.1l0,0l0.1,0.1l0.1,0l0.1,0.1c0.1,0,0.1,0,0.2,0l0,0l6.8,0.3
					l0,0L185,84c0,0,0,0,0,0L213.6,68C214.6,67.5,215.3,66.6,215.7,65.5L215.7,65.5z"/>
				<path id="Fill-37-Copy" class="st0" d="M90.1,344.2l2.1-3.6l2.1,3.7L90.1,344.2z M121.1,330.2l-2,1.1l-2.6-4.8l2-1.1
					L121.1,330.2L121.1,330.2z M115.1,327.3l2.6,4.8l-21.9,12.1l-2.6-4.8L115.1,327.3L115.1,327.3z M125.2,327.1
					c-0.2,0.7-0.6,1.3-1.3,1.6l-1.4,0.7l-2.6-4.8l1.4-0.7c0.7-0.3,1.4-0.4,2.1-0.2c0.7,0.2,1.2,0.6,1.7,1.3
					C125.3,325.6,125.4,326.3,125.2,327.1L125.2,327.1z M126.7,327.5c0.3-1.1,0.2-2.2-0.3-3.3c-0.6-1-1.5-1.7-2.6-2
					c-1.1-0.3-2.2-0.2-3.3,0.4l-28.6,15.9c0,0,0,0-0.1,0l-0.2,0.3l0,0l-3.4,5.9L88,345l0,0.1l0.1,0.2c0,0.1,0.1,0.1,0.1,0.1l0,0
					l0.1,0.1l0,0l0.1,0.1l0.1,0l0.1,0.1c0.1,0,0.1,0,0.2,0l0,0l6.8,0.3l0,0L96,346c0,0,0,0,0,0l28.5-15.9
					C125.6,329.5,126.3,328.6,126.7,327.5L126.7,327.5z"/>
				<path id="Path" class="st1" d="M346.3,273c-2.4,0.1-4.3,2.1-4.3,4.5c0,2.5,2,4.5,4.5,4.5s4.5-2,4.5-4.5c0-2.4-1.9-4.4-4.3-4.5
					l-0.2,0L346.3,273z M346.7,271c3.5,0.1,6.3,3,6.3,6.5c0,3.6-2.9,6.5-6.5,6.5s-6.5-2.9-6.5-6.5c0-3.5,2.8-6.4,6.3-6.5l0.2,0
					L346.7,271z"/>
				<path id="Path-Copy-5" class="st1" d="M38.3,95c-2.4,0.1-4.3,2.1-4.3,4.5c0,2.5,2,4.5,4.5,4.5s4.5-2,4.5-4.5
					c0-2.4-1.9-4.4-4.3-4.5l-0.2,0L38.3,95z M38.7,93c3.5,0.1,6.3,3,6.3,6.5c0,3.6-2.9,6.5-6.5,6.5s-6.5-2.9-6.5-6.5
					c0-3.5,2.8-6.4,6.3-6.5l0.2,0L38.7,93z"/>
				<path id="Path-Copy-6" class="st1" d="M338.3,84c-2.4,0.1-4.3,2.1-4.3,4.5c0,2.5,2,4.5,4.5,4.5s4.5-2,4.5-4.5
					c0-2.4-1.9-4.4-4.3-4.5l-0.2,0L338.3,84z M338.7,82c3.5,0.1,6.3,3,6.3,6.5c0,3.6-2.9,6.5-6.5,6.5s-6.5-2.9-6.5-6.5
					c0-3.5,2.8-6.4,6.3-6.5l0.2,0L338.7,82z"/>
				<path id="Path-Copy-7" class="st1" d="M185.3,180c-2.4,0.1-4.3,2.1-4.3,4.5c0,2.5,2,4.5,4.5,4.5s4.5-2,4.5-4.5
					c0-2.4-1.9-4.4-4.3-4.5l-0.2,0L185.3,180z M185.7,178c3.5,0.1,6.3,3,6.3,6.5c0,3.6-2.9,6.5-6.5,6.5s-6.5-2.9-6.5-6.5
					c0-3.5,2.8-6.4,6.3-6.5l0.2,0L185.7,178z"/>
				<path id="Path-Copy-8" class="st1" d="M87.3,301c-2.4,0.1-4.3,2.1-4.3,4.5c0,2.5,2,4.5,4.5,4.5s4.5-2,4.5-4.5
					c0-2.4-1.9-4.4-4.3-4.5l-0.2,0L87.3,301z M87.7,299c3.5,0.1,6.3,3,6.3,6.5c0,3.6-2.9,6.5-6.5,6.5s-6.5-2.9-6.5-6.5
					c0-3.5,2.8-6.4,6.3-6.5l0.2,0L87.7,299z"/>
				<path id="Path_1_" class="st1" d="M244.5,388.7c0.4,0.4,0.4,1.1,0,1.5l-6.2,6.2c-0.4,0.4-1.1,0.4-1.5,0l-6.2-6.2
					c-0.4-0.4-0.4-1.1,0-1.5l6.2-6.2c0.4-0.4,1.1-0.4,1.5,0L244.5,388.7z M242.4,389.5l-4.9-4.9l-4.9,4.9l4.9,4.9L242.4,389.5z"/>
				<path id="Path-Copy-4" class="st1" d="M445.2,68.3c0.6,0.2,0.9,0.8,0.8,1.3l-2.3,8.5c-0.2,0.6-0.8,0.9-1.3,0.8l-8.5-2.3
					c-0.6-0.2-0.9-0.7-0.8-1.3l2.3-8.5c0.2-0.6,0.8-0.9,1.3-0.8L445.2,68.3z M443.8,70l-6.8-1.8l-1.8,6.8l6.8,1.8L443.8,70z"/>
				<path id="Path-Copy-9" class="st1" d="M217.1,5.9c0.5,0.3,0.7,1,0.4,1.5l-4.4,7.6c-0.3,0.5-1,0.7-1.5,0.4l-7.6-4.4
					c-0.5-0.3-0.7-1-0.4-1.5l4.4-7.6c0.3-0.5,1-0.7,1.5-0.4L217.1,5.9z M215.3,7.2l-6.1-3.5l-3.5,6.1l6.1,3.5L215.3,7.2z"/>
				<path id="Path-8" class="st1" d="M323,358.5c0.6,0,1,0.4,1,1c0,0.5-0.4,0.9-0.9,1l-0.1,0h-5c-0.6,0-1-0.4-1-1
					c0-0.5,0.4-0.9,0.9-1l0.1,0H323z"/>
				<path id="Path-8-Copy" class="st1" d="M333,358.5c0.6,0,1,0.4,1,1c0,0.5-0.4,0.9-0.9,1l-0.1,0h-5c-0.6,0-1-0.4-1-1
					c0-0.5,0.4-0.9,0.9-1l0.1,0H333z"/>
				<path id="Path-8_1_" class="st1" d="M326.5,357c0,0.6-0.4,1-1,1c-0.5,0-0.9-0.4-1-0.9l0-0.1v-5c0-0.6,0.4-1,1-1
					c0.5,0,0.9,0.4,1,0.9l0,0.1V357z"/>
				<path id="Path-8-Copy_1_" class="st1" d="M326.5,367c0,0.6-0.4,1-1,1c-0.5,0-0.9-0.4-1-0.9l0-0.1v-5c0-0.6,0.4-1,1-1
					c0.5,0,0.9,0.4,1,0.9l0,0.1V367z"/>
				<path id="Path-8_2_" class="st1" d="M121,366.5c0.6,0,1,0.4,1,1c0,0.5-0.4,0.9-0.9,1l-0.1,0h-5c-0.6,0-1-0.4-1-1
					c0-0.5,0.4-0.9,0.9-1l0.1,0H121z"/>
				<path id="Path-8-Copy_2_" class="st1" d="M131,366.5c0.6,0,1,0.4,1,1c0,0.5-0.4,0.9-0.9,1l-0.1,0h-5c-0.6,0-1-0.4-1-1
					c0-0.5,0.4-0.9,0.9-1l0.1,0H131z"/>
				<path id="Path-8_3_" class="st1" d="M124.5,365c0,0.6-0.4,1-1,1c-0.5,0-0.9-0.4-1-0.9l0-0.1v-5c0-0.6,0.4-1,1-1
					c0.5,0,0.9,0.4,1,0.9l0,0.1V365z"/>
				<path id="Path-8-Copy_3_" class="st1" d="M124.5,375c0,0.6-0.4,1-1,1c-0.5,0-0.9-0.4-1-0.9l0-0.1v-5c0-0.6,0.4-1,1-1
					c0.5,0,0.9,0.4,1,0.9l0,0.1V375z"/>
				<path id="Path-8_4_" class="st1" d="M200,132.5c0.6,0,1,0.4,1,1c0,0.5-0.4,0.9-0.9,1l-0.1,0h-5c-0.6,0-1-0.4-1-1
					c0-0.5,0.4-0.9,0.9-1l0.1,0H200z"/>
				<path id="Path-8-Copy_4_" class="st1" d="M210,132.5c0.6,0,1,0.4,1,1c0,0.5-0.4,0.9-0.9,1l-0.1,0h-5c-0.6,0-1-0.4-1-1
					c0-0.5,0.4-0.9,0.9-1l0.1,0H210z"/>
				<path id="Path-8_5_" class="st1" d="M203.5,131c0,0.6-0.4,1-1,1c-0.5,0-0.9-0.4-1-0.9l0-0.1v-5c0-0.6,0.4-1,1-1
					c0.5,0,0.9,0.4,1,0.9l0,0.1V131z"/>
				<path id="Path-8-Copy_5_" class="st1" d="M203.5,141c0,0.6-0.4,1-1,1c-0.5,0-0.9-0.4-1-0.9l0-0.1v-5c0-0.6,0.4-1,1-1
					c0.5,0,0.9,0.4,1,0.9l0,0.1V141z"/>
				<path id="Path-8_6_" class="st1" d="M280,202.5c0.6,0,1,0.4,1,1c0,0.5-0.4,0.9-0.9,1l-0.1,0h-5c-0.6,0-1-0.4-1-1
					c0-0.5,0.4-0.9,0.9-1l0.1,0H280z"/>
				<path id="Path-8-Copy_6_" class="st1" d="M290,202.5c0.6,0,1,0.4,1,1c0,0.5-0.4,0.9-0.9,1l-0.1,0h-5c-0.6,0-1-0.4-1-1
					c0-0.5,0.4-0.9,0.9-1l0.1,0H290z"/>
				<path id="Path-8_7_" class="st1" d="M283.5,201c0,0.6-0.4,1-1,1c-0.5,0-0.9-0.4-1-0.9l0-0.1v-5c0-0.6,0.4-1,1-1
					c0.5,0,0.9,0.4,1,0.9l0,0.1V201z"/>
				<path id="Path-8-Copy_7_" class="st1" d="M283.5,211c0,0.6-0.4,1-1,1c-0.5,0-0.9-0.4-1-0.9l0-0.1v-5c0-0.6,0.4-1,1-1
					c0.5,0,0.9,0.4,1,0.9l0,0.1V211z"/>
			</g>
		</g>
	</g>
</g>
</svg>
